<?xml version="1.0" encoding="iso-8859-1"?>
<!-- Uploaded to: SVG Repo, www.svgrepo.com, Generator: SVG Repo Mixer Tools -->
<svg fill="#000000" height="800px" width="800px" version="1.1" id="Capa_1" xmlns="http://www.w3.org/2000/svg" xmlns:xlink="http://www.w3.org/1999/xlink" 
	 viewBox="0 0 60 60" xml:space="preserve">
<g>
	<polygon points="34.791,33.5 47.209,33.5 41,16.425 	"/>
	<polygon points="12.499,37.5 19.501,37.5 16,28.31 	"/>
	<path d="M0,0.5v59h60v-59H0z M10.293,14.793l4.999-4.999c0.092-0.093,0.203-0.166,0.326-0.217c0.244-0.101,0.519-0.101,0.764,0
		c0.123,0.051,0.234,0.125,0.326,0.217l4.999,4.999c0.391,0.391,0.391,1.023,0,1.414C21.512,16.402,21.256,16.5,21,16.5
		s-0.512-0.098-0.707-0.293L17,12.914V20.5c0,0.553-0.447,1-1,1s-1-0.447-1-1v-7.586l-3.293,3.293
		C11.512,16.402,11.256,16.5,11,16.5s-0.512-0.098-0.707-0.293C9.902,15.816,9.902,15.184,10.293,14.793z M24.356,47.435
		C24.239,47.479,24.118,47.5,24,47.5c-0.402,0-0.782-0.245-0.935-0.644L20.263,39.5h-8.526l-2.802,7.356
		C8.782,47.255,8.402,47.5,8,47.5c-0.118,0-0.239-0.021-0.356-0.065c-0.516-0.196-0.774-0.774-0.578-1.291l8-21
		c0.004-0.01,0.012-0.015,0.016-0.025c0.028-0.067,0.073-0.123,0.115-0.183c0.033-0.048,0.059-0.101,0.099-0.141
		c0.038-0.038,0.088-0.062,0.132-0.093c0.063-0.045,0.122-0.092,0.193-0.122c0.009-0.004,0.014-0.011,0.023-0.014
		c0.046-0.018,0.093-0.013,0.139-0.023c0.072-0.016,0.142-0.036,0.217-0.036c0.074,0,0.143,0.02,0.215,0.036
		c0.047,0.011,0.095,0.006,0.142,0.024c0.009,0.003,0.015,0.011,0.023,0.015c0.067,0.028,0.123,0.074,0.183,0.116
		c0.048,0.033,0.101,0.059,0.142,0.1c0.039,0.038,0.063,0.089,0.095,0.135c0.044,0.062,0.091,0.119,0.12,0.189
		c0.004,0.009,0.012,0.015,0.016,0.024l8,21C25.131,46.66,24.872,47.238,24.356,47.435z M53.342,47.439
		C53.229,47.48,53.113,47.5,53,47.5c-0.408,0-0.792-0.252-0.939-0.658L47.936,35.5H34.064l-4.124,11.342
		C29.792,47.248,29.408,47.5,29,47.5c-0.113,0-0.229-0.02-0.342-0.061c-0.519-0.188-0.787-0.762-0.598-1.281l12-33
		c0.005-0.014,0.016-0.023,0.022-0.036c0.027-0.067,0.07-0.123,0.111-0.182c0.034-0.049,0.062-0.1,0.103-0.142
		c0.042-0.042,0.095-0.071,0.146-0.106c0.058-0.04,0.112-0.081,0.177-0.108c0.014-0.006,0.023-0.018,0.038-0.023
		c0.046-0.017,0.092-0.011,0.138-0.021c0.067-0.014,0.132-0.03,0.202-0.03c0.073,0,0.141,0.016,0.211,0.031
		c0.044,0.01,0.088,0.004,0.132,0.02c0.014,0.005,0.023,0.017,0.037,0.022c0.067,0.027,0.123,0.07,0.183,0.112
		c0.048,0.034,0.1,0.062,0.141,0.103c0.042,0.042,0.07,0.094,0.105,0.144c0.041,0.059,0.083,0.115,0.11,0.181
		c0.006,0.014,0.017,0.022,0.022,0.036l12,33C54.129,46.678,53.86,47.251,53.342,47.439z"/>
</g>
</svg>