<?xml version="1.0" encoding="iso-8859-1"?>
<!-- Uploaded to: SVG Repo, www.svgrepo.com, Generator: SVG Repo Mixer Tools -->
<svg height="800px" width="800px" version="1.1" id="Layer_1" xmlns="http://www.w3.org/2000/svg" xmlns:xlink="http://www.w3.org/1999/xlink" 
	 viewBox="0 0 512 512" xml:space="preserve">
<g transform="translate(1 1)">
	<path style="fill:#00DA6C;" d="M502.467,144.067c0-75.093-61.44-136.533-136.533-136.533S229.4,68.973,229.4,144.067
		S290.84,280.6,365.933,280.6S502.467,219.16,502.467,144.067"/>
	<path style="fill:#00AD55;" d="M365.933,7.533c-4.267,0-8.533,0-12.8,0.853c69.12,5.973,123.733,64.853,123.733,135.68
		s-54.613,129.707-123.733,135.68c4.267,0,8.533,0.853,12.8,0.853c75.093,0,136.533-61.44,136.533-136.533
		S441.027,7.533,365.933,7.533"/>
	<g>
		<polygon style="fill:#63D3FD;" points="246.467,442.733 178.2,442.733 212.333,383 		"/>
		<polygon style="fill:#63D3FD;" points="161.133,502.467 178.2,442.733 246.467,442.733 263.533,502.467 		"/>
	</g>
	<g>
		<path style="fill:#FFE100;" d="M24.6,416.28c-10.24,5.973-17.067,16.213-17.067,28.16v58.027h153.6l17.067-59.733l-44.373-66.56
			C100.547,380.44,63.853,395.8,24.6,416.28"/>
		<path style="fill:#FFE100;" d="M137.24,335.213l-9.387,30.72l50.347,76.8L212.333,383C182.467,383,156.013,363.373,137.24,335.213
			"/>
		<path style="fill:#FFE100;" d="M400.067,416.28c10.24,5.973,17.067,16.213,17.067,28.16v58.027h-153.6l-17.067-59.733
			l44.373-66.56C324.12,380.44,360.813,395.8,400.067,416.28"/>
		<path style="fill:#FFE100;" d="M287.427,335.213l10.24,30.72l-51.2,76.8L212.333,383C242.2,383,268.653,363.373,287.427,335.213"
			/>
		<path style="fill:#FFE100;" d="M229.4,144.067c0-17.067,3.413-32.427,8.533-47.787c-8.533-2.56-17.067-3.413-25.6-3.413
			c-56.32,0-102.4,48.64-102.4,109.227v44.373c0,64,46.08,136.533,102.4,136.533c49.493,0,91.307-56.32,100.693-113.493
			C263.533,249.027,229.4,200.387,229.4,144.067"/>
	</g>
	<path style="fill:#FFFFFF;" d="M50.2,416.28c29.867-16.213,59.733-29.013,87.04-35.84l-2.56-4.267
		C100.547,380.44,63.853,395.8,25.453,416.28c-10.24,5.973-17.067,16.213-17.067,28.16v58.027h25.6V444.44
		C33.133,432.493,39.96,421.4,50.2,416.28"/>
	<path style="fill:#FFA800;" d="M374.467,416.28c-29.867-16.213-59.733-29.013-87.04-35.84l2.56-4.267
		c34.133,4.267,70.827,19.627,109.227,40.107c10.24,5.973,17.067,16.213,17.067,28.16v58.027h-25.6V444.44
		C391.533,432.493,384.707,421.4,374.467,416.28"/>
	<path style="fill:#FFFFFF;" d="M135.533,246.467V201.24c0-55.467,39.253-101.547,89.6-107.52c-4.267-0.853-8.533-0.853-12.8-0.853
		c-56.32,0-102.4,48.64-102.4,109.227v44.373c0,64,46.08,136.533,102.4,136.533c4.267,0,8.533-0.853,12.8-1.707
		C174.787,371.907,135.533,305.347,135.533,246.467"/>
	<path d="M246.467,451.267L246.467,451.267H178.2c-3.413,0-5.973-1.707-7.68-4.267c-1.707-2.56-1.707-5.973,0-8.533l34.133-59.733
		c1.707-2.56,4.267-4.267,7.68-4.267l0,0c3.413,0,5.973,1.707,7.68,4.267l33.28,58.027c0.853,1.707,1.707,3.413,1.707,5.12
		C255,447.853,251.587,451.267,246.467,451.267z M192.707,434.2h39.253l-19.627-34.133L192.707,434.2z"/>
	<path d="M263.533,511L263.533,511h-102.4c-2.56,0-5.12-0.853-6.827-3.413c-1.707-1.707-1.707-5.12-1.707-7.68l17.067-59.733
		c0.853-3.413,4.267-5.973,8.533-5.973h68.267c3.413,0,6.827,2.56,8.533,5.973l16.213,58.027c0.853,1.707,0.853,2.56,0.853,4.267
		C272.067,507.587,268.653,511,263.533,511z M172.227,493.933h79.36l-11.947-42.667h-55.467L172.227,493.933z"/>
	<path d="M365.933,289.133c-80.213,0-145.067-64.853-145.067-145.067S285.72-1,365.933-1S511,63.853,511,144.067
		S446.147,289.133,365.933,289.133z M365.933,16.067c-70.827,0-128,57.173-128,128s57.173,128,128,128s128-57.173,128-128
		S436.76,16.067,365.933,16.067z"/>
	<path d="M161.133,511H7.533C2.413,511-1,507.587-1,502.467V444.44c0-15.36,8.533-29.013,22.187-35.84
		c46.933-24.747,81.067-37.547,112.64-40.96c3.413-0.853,5.973,0.853,8.533,3.413l44.373,66.56c0,2.56,0,5.12,0,7.68l-17.067,59.733
		C167.96,508.44,164.547,511,161.133,511z M16.067,493.933h138.24l14.507-49.493l-39.253-58.88
		c-27.307,4.267-58.88,16.213-101.547,38.4c-6.827,3.413-11.947,11.947-11.947,20.48V493.933z"/>
	<path d="M178.2,451.267c-2.56,0-5.12-1.707-6.827-3.413l-50.347-76.8c-1.707-2.56-1.707-5.12-0.853-7.68l10.24-30.72
		c0.853-3.413,3.413-5.12,6.827-5.973c3.413-0.853,6.827,0.853,8.533,3.413c18.773,28.16,43.52,44.373,67.413,44.373
		c3.413,0,5.973,1.707,7.68,4.267c1.707,2.56,1.707,5.973,0,8.533L186.733,447C184.173,449.56,181.613,451.267,178.2,451.267
		L178.2,451.267z M137.24,365.08l40.96,61.44l20.48-35.84c-20.48-4.267-40.96-17.067-58.027-36.693L137.24,365.08z"/>
	<path d="M417.133,511h-153.6c-3.413,0-6.827-2.56-8.533-5.973l-17.067-59.733c-0.853-2.56,0-5.12,0.853-6.827l44.373-66.56
		c1.707-2.56,5.12-4.267,8.533-3.413c30.72,3.413,65.707,16.213,112.64,40.96c13.653,6.827,21.333,20.48,21.333,35.84v57.173
		C425.667,507.587,422.253,511,417.133,511z M270.36,493.933H408.6V444.44c0-8.533-5.12-17.067-12.8-21.333
		c-41.813-22.187-73.387-34.133-101.547-38.4L255,443.587L270.36,493.933z"/>
	<path d="M246.467,451.267L246.467,451.267c-3.413,0-5.973-1.707-7.68-4.267l-34.133-59.733c-1.707-2.56-1.707-5.973,0-8.533
		c1.707-2.56,4.267-4.267,7.68-4.267c24.747,0,48.64-16.213,67.413-44.373c1.707-2.56,5.12-4.267,8.533-3.413
		c3.413,0.853,5.973,2.56,6.827,5.973l10.24,30.72c0.853,2.56,0,5.12-0.853,7.68l-50.347,76.8
		C251.587,449.56,249.027,451.267,246.467,451.267z M225.987,389.827l20.48,35.84l40.96-61.44l-3.413-11.093
		C266.947,373.613,247.32,386.413,225.987,389.827z"/>
	<path d="M212.333,391.533c-62.293,0-110.933-77.653-110.933-145.067V201.24c0-64,49.493-116.907,110.933-116.907
		c9.387,0,18.773,1.707,28.16,4.267c2.56,0.853,4.267,2.56,5.12,4.267c0.853,2.56,0.853,4.267,0,6.827
		c-5.12,14.507-8.533,29.867-8.533,44.373c0,51.2,30.72,98.133,78.507,117.76c3.413,1.707,5.973,5.12,5.12,9.387
		C311.32,330.093,268.653,391.533,212.333,391.533z M212.333,101.4c-52.053,0-93.867,45.227-93.867,100.693v44.373
		c0,58.027,41.813,128,93.867,128c44.373,0,80.213-50.347,90.453-99.84c-49.493-23.893-81.92-74.24-81.92-130.56
		c0-13.653,1.707-28.16,5.973-40.96C221.72,102.253,217.453,101.4,212.333,101.4z"/>
	<path d="M365.933,255c-5.12,0-8.533-3.413-8.533-8.533v-204.8c0-5.12,3.413-8.533,8.533-8.533s8.533,3.413,8.533,8.533v204.8
		C374.467,251.587,371.053,255,365.933,255z"/>
	<path d="M365.933,237.933c-21.333,0-39.253-7.68-49.493-20.48c-2.56-3.413-2.56-9.387,1.707-11.947
		c3.413-2.56,9.387-2.56,11.947,1.707c6.827,8.533,20.48,13.653,35.84,13.653c20.48,0,42.667-12.8,42.667-34.133
		c0-20.48-22.187-34.133-42.667-34.133c-29.013,0-59.733-19.627-59.733-51.2s30.72-51.2,59.733-51.2
		c21.333,0,39.253,6.827,49.493,20.48c2.56,3.413,2.56,9.387-1.707,11.947c-3.413,2.56-9.387,2.56-11.947-1.707
		c-6.827-8.533-19.627-13.653-35.84-13.653c-20.48,0-42.667,13.653-42.667,34.133c0,21.333,22.187,34.133,42.667,34.133
		c29.013,0,59.733,19.627,59.733,51.2S394.947,237.933,365.933,237.933z"/>
	<path d="M408.6,109.933c-5.12,0-8.533-3.413-8.533-8.533V50.2c0-5.12,3.413-8.533,8.533-8.533c5.12,0,8.533,3.413,8.533,8.533v51.2
		C417.133,106.52,413.72,109.933,408.6,109.933z"/>
	<path d="M323.267,246.467c-5.12,0-8.533-3.413-8.533-8.533v-51.2c0-5.12,3.413-8.533,8.533-8.533c5.12,0,8.533,3.413,8.533,8.533
		v51.2C331.8,243.053,328.387,246.467,323.267,246.467z"/>
</g>
</svg>