<?xml version="1.0" encoding="utf-8"?>
<svg width="800px" height="800px" viewBox="0 0 24 24" fill="none" xmlns="http://www.w3.org/2000/svg">
    <g id="Interface / Link">
        <path id="Vector"
            d="M14.7277 12.0001L14.7277 12.0001C14.3372 12.3906 13.7041 12.3906 13.3136 12.0001C12.9231 11.6096 12.9231 10.9765 13.3136 10.586L15.8995 8.00013C17.0711 6.82856 18.9289 6.82856 20.1005 8.00013C21.2721 9.1717 21.2721 11.0294 20.1005 12.201L18.5147 13.7868"
            stroke="#1C274C" stroke-width="2" stroke-linecap="round" stroke-linejoin="round" />
        <path id="Vector_2"
            d="M9.51472 10.2132L8.00001 11.7279C6.82844 12.8995 6.82844 14.7572 8.00001 15.9288C9.17158 17.1004 11.0293 17.1004 12.2009 15.9288L14.7868 13.3429C15.1773 12.9524 15.1773 12.3193 14.7868 11.9288C14.3963 11.5383 13.7632 11.5383 13.3727 11.9288L13.3727 11.9288"
            stroke="#1C274C" stroke-width="2" stroke-linecap="round" stroke-linejoin="round" />
        <path id="Vector_3"
            d="M12 2C10.0222 2 8.08879 2.58649 6.4443 3.6853C4.79981 4.78412 3.51808 6.3459 2.76121 8.17316C2.00433 10.0004 1.8063 12.0111 2.19214 13.9509C2.57798 15.8907 3.53041 17.6725 4.92893 19.0711C6.32746 20.4696 8.10929 21.422 10.0491 21.8079C11.9889 22.1937 13.9996 21.9957 15.8268 21.2388C17.6541 20.4819 19.2159 19.2002 20.3147 17.5557C21.4135 15.9112 22 13.9778 22 12"
            stroke="#1C274C" stroke-width="2" stroke-linecap="round" stroke-linejoin="round" />
        <path id="Vector_4" d="M8 8L10 10" stroke="#1C274C" stroke-width="2" stroke-linecap="round"
            stroke-linejoin="round" />
        <path id="Vector_5" d="M14 14L16 16" stroke="#1C274C" stroke-width="2"
            stroke-linecap="round" stroke-linejoin="round" />
    </g>
</svg>