<?xml version="1.0" encoding="iso-8859-1"?>
<!-- Generator: Adobe Illustrator 19.0.0, SVG Export Plug-In . SVG Version: 6.00 Build 0)  -->
<svg version="1.1" id="Layer_1" xmlns="http://www.w3.org/2000/svg" xmlns:xlink="http://www.w3.org/1999/xlink" x="0px" y="0px"
	 viewBox="0 0 512 512" style="enable-background:new 0 0 512 512;" xml:space="preserve">
<path id="SVGCleanerId_0" style="fill:#47CEAC;" d="M512,256.006C512,397.402,397.394,512.004,256.004,512
	C114.606,512.004,0,397.402,0,256.006C-0.007,114.61,114.606,0,256.004,0C397.394,0,512,114.614,512,256.006z"/>
<g>
	<path id="SVGCleanerId_0_1_" style="fill:#47CEAC;" d="M512,256.006C512,397.402,397.394,512.004,256.004,512
		C114.606,512.004,0,397.402,0,256.006C-0.007,114.61,114.606,0,256.004,0C397.394,0,512,114.614,512,256.006z"/>
</g>
<path style="fill:#36BB9A;" d="M512,256.005c0-21.556-2.695-42.478-7.712-62.478c-0.109-0.105-0.21-0.217-0.32-0.32
	c-0.541-0.576-91.175-91.212-91.751-91.751c-6.811-7.254-16.413-11.856-27.124-11.856H126.908
	c-20.571,0-37.308,16.737-37.308,37.307v258.186c0,10.709,4.599,20.309,11.852,27.12c0.541,0.577,91.179,91.214,91.756,91.756
	c0.105,0.112,0.218,0.213,0.323,0.323c19.998,5.015,40.918,7.71,62.473,7.709C397.394,512.004,512,397.401,512,256.005z"/>
<g>
	<path style="fill:#F4F6F9;" d="M385.092,89.6H126.908c-20.571,0-37.308,16.737-37.308,37.308v258.186
		c0,20.57,16.737,37.307,37.308,37.307h258.186c20.57,0,37.307-16.737,37.307-37.308V126.908
		C422.4,106.337,405.663,89.6,385.092,89.6z M408.533,385.092c0,12.926-10.515,23.441-23.441,23.441H126.908
		c-12.926,0-23.441-10.515-23.441-23.441V126.908c0-12.926,10.515-23.441,23.441-23.441h258.186c12.925,0,23.44,10.515,23.44,23.441
		V385.092z"/>
	<rect x="193.6" y="186.048" style="fill:#F4F6F9;" width="17.268" height="137.248"/>
	<path style="fill:#F4F6F9;" d="M317.577,179.733h-17.268v56.817h-0.415c-4.317-7.941-13.567-13.849-26.518-13.849
		c-21.591,0-40.299,18.939-40.299,52.336c0,30.746,16.653,50.294,38.653,50.294c14.39,0,25.086-7.941,29.811-17.713h0.615
		l1.03,15.678H318.4c-0.409-6.516-0.823-16.699-0.823-24.846V179.733z M300.308,283.795c0,2.85-0.207,5.291-0.823,7.325
		c-3.493,13.649-13.158,20.165-23.024,20.165c-17.275,0-25.909-16.699-25.909-36.858c0-20.98,9.25-37.878,26.318-37.878
		c11.927,0,20.561,9.162,22.823,20.159c0.409,2.24,0.615,5.091,0.615,7.331V283.795z"/>
</g>
<g>
</g>
<g>
</g>
<g>
</g>
<g>
</g>
<g>
</g>
<g>
</g>
<g>
</g>
<g>
</g>
<g>
</g>
<g>
</g>
<g>
</g>
<g>
</g>
<g>
</g>
<g>
</g>
<g>
</g>
</svg>
