<svg id="svg" version="1.1" xmlns="http://www.w3.org/2000/svg" xmlns:xlink="http://www.w3.org/1999/xlink" width="400" height="439.56043956043953" viewBox="0, 0, 400,439.56043956043953"><g id="svgg"><path id="path0" d="M204.400 89.635 C 199.667 89.919,198.402 90.109,194.600 91.104 C 193.720 91.334,190.930 91.736,188.400 91.997 C 185.870 92.259,182.936 92.636,181.880 92.836 C 180.824 93.036,179.204 93.206,178.280 93.214 C 176.132 93.232,172.697 94.054,170.256 95.134 C 168.557 95.886,165.515 96.666,160.600 97.611 C 158.160 98.080,156.510 98.667,154.991 99.605 C 154.232 100.075,151.984 100.973,149.997 101.601 C 148.009 102.229,145.811 103.225,145.112 103.813 C 144.042 104.713,139.240 107.200,138.572 107.200 C 138.457 107.200,137.911 107.652,137.359 108.205 C 136.806 108.758,135.479 109.653,134.409 110.195 C 133.340 110.737,131.415 112.053,130.132 113.118 C 128.850 114.184,127.262 115.403,126.605 115.828 C 125.947 116.253,124.671 117.320,123.769 118.200 C 122.867 119.080,121.605 120.278,120.964 120.863 C 120.324 121.448,119.412 122.348,118.937 122.863 C 118.462 123.378,117.427 124.410,116.637 125.156 C 115.847 125.902,115.200 126.650,115.200 126.818 C 115.200 126.987,114.559 127.906,113.775 128.862 C 112.992 129.818,112.105 130.901,111.805 131.270 C 111.505 131.638,110.785 132.808,110.205 133.870 C 109.625 134.931,108.838 136.070,108.456 136.400 C 107.659 137.089,106.888 138.475,105.562 141.600 C 105.049 142.810,104.152 144.520,103.569 145.400 C 102.986 146.280,102.389 147.450,102.241 148.000 C 101.286 151.554,101.063 152.324,100.684 153.400 C 100.451 154.060,99.965 155.050,99.605 155.600 C 99.244 156.150,98.755 157.320,98.518 158.200 C 97.632 161.483,96.793 165.429,96.797 166.294 C 96.798 166.786,96.629 167.956,96.420 168.894 C 94.262 178.578,93.587 183.690,93.613 190.169 C 93.629 194.336,94.572 203.121,95.333 206.200 C 95.659 207.520,96.139 209.950,96.399 211.600 C 97.695 219.828,98.526 223.393,99.613 225.400 C 100.321 226.707,100.488 227.218,101.575 231.400 C 102.412 234.618,103.112 236.288,104.066 237.342 C 104.435 237.750,104.950 238.650,105.209 239.342 C 106.698 243.313,107.654 245.276,108.462 246.019 C 108.832 246.359,109.670 247.807,110.325 249.236 C 110.980 250.666,112.345 252.807,113.358 253.994 C 114.371 255.181,115.200 256.385,115.200 256.670 C 115.200 256.955,115.983 257.956,116.941 258.894 C 117.899 259.832,118.756 260.832,118.847 261.117 C 119.007 261.620,124.238 267.291,130.500 273.752 C 132.205 275.511,133.600 277.096,133.600 277.275 C 133.600 277.454,133.870 277.600,134.200 277.600 C 134.530 277.600,134.800 277.755,134.800 277.944 C 134.800 278.133,137.068 280.608,139.840 283.444 C 142.611 286.280,145.356 289.225,145.940 289.989 C 146.523 290.754,147.540 291.930,148.200 292.603 C 149.574 294.005,150.400 295.337,150.400 296.153 C 150.400 296.463,151.210 297.574,152.200 298.622 C 153.190 299.670,154.000 300.823,154.000 301.184 C 154.000 301.545,154.149 302.011,154.330 302.220 C 154.512 302.429,154.895 303.346,155.181 304.258 C 155.467 305.170,156.083 306.340,156.550 306.858 C 157.783 308.224,158.238 309.350,159.274 313.591 C 159.783 315.677,160.578 317.940,161.040 318.620 C 161.944 319.953,162.255 320.974,162.800 324.400 C 162.993 325.610,163.350 327.752,163.594 329.161 C 164.163 332.448,162.804 337.200,161.295 337.200 C 160.908 337.200,157.600 340.227,157.600 340.580 C 157.600 340.731,157.105 341.502,156.500 342.296 C 154.906 344.385,155.103 354.000,156.740 354.000 C 157.026 354.000,157.668 355.177,159.196 358.498 C 159.677 359.543,160.504 360.738,161.035 361.156 C 162.262 362.121,162.253 363.041,161.000 364.886 C 160.450 365.695,160.000 366.633,160.000 366.969 C 160.000 367.306,159.101 368.524,158.002 369.676 C 155.644 372.148,155.305 373.356,155.520 378.518 C 155.579 379.921,155.850 380.686,156.530 381.366 C 157.042 381.878,157.712 382.905,158.020 383.648 C 158.622 385.102,159.364 386.136,160.540 387.157 C 162.647 388.987,163.478 389.951,164.272 391.486 L 165.145 393.172 163.972 395.592 C 162.094 399.471,162.980 406.210,165.480 407.052 C 168.039 407.914,172.148 410.232,172.885 411.230 C 173.361 411.873,173.960 412.400,174.217 412.400 C 174.473 412.400,175.169 412.850,175.762 413.400 C 177.035 414.579,177.852 414.657,178.913 413.700 C 179.890 412.820,185.613 412.849,193.400 413.775 C 199.406 414.489,208.717 414.586,212.200 413.972 C 213.520 413.739,215.590 413.397,216.800 413.212 C 220.501 412.645,224.037 411.628,225.209 410.794 C 225.822 410.357,226.611 410.000,226.962 410.000 C 227.313 410.000,227.600 409.865,227.601 409.700 C 227.601 409.535,228.407 408.860,229.392 408.200 C 230.377 407.540,231.468 406.408,231.818 405.684 C 232.167 404.960,232.955 403.790,233.568 403.084 C 235.352 401.029,235.685 400.078,235.893 396.436 C 236.122 392.438,236.550 391.581,238.902 390.406 C 240.130 389.793,240.909 389.020,241.585 387.746 C 242.109 386.758,242.912 385.646,243.370 385.275 C 245.678 383.402,245.829 372.032,243.572 369.998 C 243.205 369.667,242.224 367.957,241.393 366.198 C 240.562 364.439,239.722 362.895,239.526 362.767 C 239.321 362.633,239.346 362.069,239.584 361.441 C 239.813 360.840,240.000 359.862,240.000 359.268 C 240.000 358.675,240.383 357.201,240.850 355.994 C 242.824 350.899,241.993 340.487,239.471 338.726 C 237.807 337.563,236.876 336.504,236.598 335.452 C 236.474 334.984,236.165 333.912,235.912 333.070 C 235.563 331.910,235.567 330.986,235.926 329.246 C 236.187 327.984,236.400 326.277,236.400 325.453 C 236.400 324.061,236.541 323.275,237.664 318.400 C 238.059 316.686,239.144 314.028,239.624 313.600 C 239.747 313.490,240.258 312.050,240.759 310.400 C 242.251 305.488,242.478 304.952,243.603 303.662 C 244.196 302.984,245.006 301.567,245.405 300.514 C 246.207 298.394,246.775 297.419,248.685 294.884 C 249.396 293.940,250.275 292.542,250.638 291.776 C 251.001 291.011,251.809 290.021,252.433 289.577 C 253.057 289.133,254.041 287.897,254.621 286.832 C 255.201 285.766,256.064 284.686,256.538 284.431 C 257.012 284.176,258.009 283.002,258.754 281.822 C 259.498 280.643,260.533 279.450,261.054 279.171 C 261.574 278.893,262.000 278.425,262.000 278.132 C 262.000 277.840,262.135 277.592,262.300 277.581 C 262.465 277.571,263.230 276.673,264.000 275.586 C 264.770 274.498,265.625 273.607,265.900 273.604 C 266.175 273.602,266.400 273.454,266.400 273.275 C 266.400 273.097,266.721 272.602,267.114 272.175 C 267.507 271.749,268.112 270.990,268.460 270.488 C 268.807 269.987,269.791 268.817,270.646 267.888 C 271.501 266.960,272.464 265.690,272.786 265.066 C 273.108 264.443,273.877 263.573,274.495 263.133 C 275.113 262.693,275.980 261.624,276.421 260.758 C 276.863 259.892,277.763 258.669,278.421 258.040 C 279.080 257.411,280.359 255.750,281.264 254.348 C 282.170 252.947,283.221 251.530,283.600 251.200 C 283.980 250.870,284.788 249.678,285.396 248.551 C 286.004 247.424,287.015 245.954,287.641 245.283 C 288.268 244.612,289.083 243.284,289.452 242.332 C 289.821 241.379,290.817 239.563,291.667 238.296 C 292.516 237.029,293.760 234.611,294.431 232.922 C 295.102 231.233,296.180 229.183,296.826 228.368 C 297.471 227.552,298.000 226.678,298.000 226.426 C 298.000 225.067,300.271 218.838,300.946 218.348 C 301.136 218.209,301.562 217.129,301.893 215.948 C 302.428 214.032,302.751 212.746,303.993 207.600 C 304.179 206.830,304.796 204.878,305.365 203.262 C 305.934 201.646,306.400 199.902,306.400 199.388 C 306.400 198.873,306.658 196.775,306.973 194.726 C 309.814 176.256,308.974 151.025,305.210 141.800 C 304.582 140.260,303.571 137.380,302.964 135.400 C 301.792 131.579,301.399 130.696,300.331 129.478 C 299.963 129.059,299.450 128.150,299.191 127.458 C 298.283 125.036,297.811 124.187,296.491 122.600 C 294.667 120.407,294.573 120.279,293.949 119.112 C 293.647 118.547,292.410 117.013,291.200 115.703 C 289.990 114.393,288.735 112.933,288.411 112.459 C 288.087 111.985,287.547 111.505,287.211 111.392 C 286.875 111.280,285.560 110.211,284.288 109.017 C 283.017 107.823,281.622 106.734,281.188 106.596 C 280.755 106.459,280.400 106.198,280.400 106.016 C 280.400 105.835,279.995 105.582,279.500 105.454 C 279.005 105.327,277.812 104.497,276.849 103.611 C 275.887 102.725,274.767 102.000,274.361 102.000 C 273.352 102.000,269.192 100.127,268.204 99.227 C 267.762 98.825,266.680 98.270,265.800 97.994 C 264.920 97.719,263.321 97.157,262.247 96.746 C 261.172 96.336,260.145 96.000,259.964 96.000 C 259.784 96.000,259.038 95.595,258.308 95.100 C 256.677 93.995,254.257 93.488,242.600 91.812 C 240.400 91.495,237.340 90.950,235.800 90.601 C 230.597 89.420,215.655 88.960,204.400 89.635 M205.444 158.928 C 208.762 162.354,207.766 171.359,203.600 175.597 C 203.165 176.039,202.000 178.349,202.000 178.770 C 202.000 179.015,201.550 179.928,201.001 180.798 L 200.002 182.381 202.064 184.968 C 203.199 186.391,204.593 187.725,205.163 187.931 C 211.574 190.256,217.525 188.959,218.064 185.120 C 218.209 184.086,218.419 183.092,218.531 182.911 C 218.643 182.730,218.191 181.506,217.525 180.191 C 215.701 176.584,215.666 170.228,217.456 167.577 C 218.116 166.600,218.888 165.220,219.172 164.511 C 220.131 162.115,225.606 158.160,227.200 158.711 C 229.864 159.632,233.276 162.914,234.155 165.400 C 234.544 166.500,235.053 167.795,235.287 168.279 C 236.075 169.908,233.594 179.598,231.944 181.335 C 227.891 185.603,226.539 189.705,228.317 192.338 C 228.711 192.922,229.379 194.069,229.801 194.887 C 230.569 196.377,230.713 196.449,234.052 197.022 C 235.381 197.250,235.652 197.120,237.252 195.495 C 238.408 194.321,239.813 193.418,241.400 192.829 C 242.720 192.339,244.847 191.441,246.127 190.834 C 248.882 189.528,251.816 189.757,254.348 191.475 C 255.140 192.012,256.349 192.718,257.036 193.044 C 259.494 194.210,260.953 202.400,258.702 202.400 C 258.536 202.400,258.400 202.550,258.400 202.733 C 258.400 202.917,257.725 203.787,256.900 204.667 C 255.451 206.213,254.847 206.605,251.400 208.235 C 250.520 208.652,249.706 209.119,249.590 209.274 C 249.475 209.429,248.195 209.745,246.746 209.977 C 244.179 210.387,243.025 210.239,240.600 209.187 C 236.059 207.218,233.671 207.486,233.613 209.972 C 233.606 210.286,233.431 211.096,233.224 211.772 C 233.017 212.447,232.635 214.080,232.374 215.400 C 232.113 216.720,231.578 218.790,231.184 220.000 C 230.182 223.078,228.643 242.423,228.224 257.200 C 228.146 259.950,227.867 268.860,227.603 277.000 C 227.250 287.865,227.236 294.139,227.549 300.600 C 227.783 305.440,227.959 309.940,227.940 310.600 C 227.590 322.523,228.907 330.252,231.453 331.220 C 232.596 331.655,232.543 331.807,230.310 334.496 C 229.367 335.630,227.345 336.301,222.000 337.252 C 214.571 338.573,173.754 338.062,170.961 336.613 L 169.912 336.069 171.616 334.835 C 172.553 334.156,173.453 333.600,173.615 333.600 C 173.777 333.600,174.368 332.475,174.927 331.100 C 176.040 328.364,176.076 327.889,176.800 306.800 C 176.993 301.190,177.351 295.297,177.595 293.704 C 178.694 286.555,177.207 249.758,175.238 235.400 C 174.828 232.408,174.121 229.653,173.595 229.000 C 173.165 228.467,171.812 223.987,171.178 221.000 C 170.418 217.413,169.802 216.573,167.372 215.809 C 165.292 215.154,162.648 215.275,162.172 216.045 C 162.051 216.240,161.698 216.400,161.387 216.400 C 161.076 216.400,159.817 216.876,158.590 217.457 C 155.686 218.832,151.162 217.542,147.402 214.267 L 145.948 213.000 146.320 210.657 C 147.362 204.102,157.535 200.313,164.122 204.027 C 167.015 205.658,171.121 193.235,168.626 190.400 C 167.436 189.048,166.401 187.340,166.394 186.714 C 166.390 186.431,165.832 185.570,165.153 184.800 C 163.483 182.906,163.006 181.853,162.434 178.800 C 162.166 177.370,161.784 175.480,161.585 174.600 C 160.246 168.682,162.774 160.400,165.919 160.400 C 166.184 160.400,166.400 160.239,166.400 160.043 C 166.400 159.331,169.314 158.488,170.550 158.843 C 173.502 159.690,176.291 162.446,177.185 165.400 C 177.451 166.280,177.931 167.583,178.251 168.295 C 179.295 170.619,179.438 177.067,178.510 180.033 C 176.363 186.902,176.430 187.951,179.087 189.062 C 182.694 190.570,187.712 188.980,190.010 185.600 C 190.533 184.830,191.076 184.110,191.215 184.000 C 192.377 183.083,192.163 179.831,190.714 176.398 C 189.325 173.106,189.503 166.349,191.036 164.169 C 191.456 163.571,192.250 162.321,192.800 161.390 C 194.199 159.023,194.731 158.462,196.155 157.854 C 196.840 157.561,198.025 157.052,198.790 156.723 C 200.369 156.042,203.728 157.155,205.444 158.928 M200.070 166.200 C 200.029 166.640,199.743 167.482,199.436 168.072 C 198.947 169.010,198.954 169.174,199.496 169.381 C 200.383 169.722,200.465 169.513,200.296 167.343 C 200.212 166.274,200.111 165.760,200.070 166.200 M168.260 167.938 L 167.133 169.114 167.630 173.057 C 168.187 177.464,168.870 179.301,169.818 178.938 C 172.140 178.047,172.460 167.600,170.166 167.600 C 169.891 167.600,169.604 167.411,169.527 167.181 C 169.450 166.950,168.880 167.290,168.260 167.938 M225.257 167.951 C 223.391 169.544,223.381 173.883,225.239 175.992 C 226.410 177.321,226.486 177.348,226.925 176.592 C 228.677 173.572,228.936 169.300,227.457 167.821 L 226.514 166.878 225.257 167.951 M193.927 191.222 C 192.977 192.091,191.582 193.096,190.827 193.455 C 190.072 193.813,188.632 194.585,187.627 195.169 C 184.760 196.835,182.771 197.338,180.278 197.027 C 177.764 196.713,176.649 197.659,175.416 201.154 C 175.087 202.088,174.474 203.336,174.056 203.926 C 171.724 207.216,171.750 209.467,174.154 212.344 C 174.947 213.294,175.877 214.730,176.219 215.536 C 176.562 216.341,177.221 217.720,177.683 218.600 C 178.145 219.480,178.870 220.868,179.295 221.684 C 180.050 223.133,180.610 225.537,181.605 231.600 C 181.876 233.250,182.414 235.770,182.800 237.200 C 184.589 243.821,184.600 244.096,184.600 280.800 C 184.600 300.050,184.438 318.193,184.239 321.118 C 183.806 327.505,184.348 331.396,185.906 333.077 L 186.879 334.126 199.139 333.855 C 205.883 333.706,212.879 333.471,214.687 333.334 L 217.974 333.084 219.359 330.205 C 220.596 327.634,220.702 327.158,220.353 325.763 C 219.738 323.306,219.452 281.957,219.984 272.400 C 220.234 267.890,220.602 260.150,220.801 255.200 C 220.999 250.250,221.359 244.850,221.600 243.200 C 222.452 237.370,222.799 234.137,223.187 228.400 C 223.933 217.375,224.625 213.737,226.534 210.806 C 228.964 207.075,228.770 204.177,225.866 200.800 C 225.015 199.810,223.983 198.370,223.574 197.600 C 222.360 195.314,222.245 195.220,219.888 194.606 C 217.567 194.002,214.628 194.661,213.820 195.967 C 213.343 196.739,208.958 196.485,207.510 195.601 C 206.789 195.162,205.900 194.802,205.532 194.801 C 205.165 194.801,204.355 194.541,203.732 194.224 C 203.110 193.908,201.924 193.359,201.099 193.005 C 200.273 192.651,199.193 191.965,198.699 191.480 C 196.705 189.525,195.835 189.478,193.927 191.222 M244.650 198.588 C 242.394 199.392,242.079 199.842,243.105 200.798 C 244.321 201.930,248.946 201.935,250.400 200.805 L 251.400 200.028 250.317 199.014 C 249.071 197.846,247.138 197.701,244.650 198.588 M232.100 361.357 C 233.449 362.381,231.879 365.198,229.958 365.200 C 229.606 365.200,228.860 365.623,228.302 366.140 C 225.575 368.667,223.625 368.859,194.348 369.484 C 180.821 369.772,170.417 368.867,169.106 367.286 C 166.931 364.666,176.721 363.633,192.081 364.863 C 201.087 365.584,217.938 364.318,220.654 362.715 C 223.607 360.973,230.514 360.153,232.100 361.357 M231.949 391.374 C 234.672 392.782,234.285 394.741,231.102 395.656 C 229.605 396.086,227.379 397.301,226.800 398.004 C 223.995 401.407,177.410 400.414,173.934 396.877 C 170.044 392.919,172.769 390.721,177.915 393.666 C 182.736 396.424,214.127 396.228,219.600 393.406 C 222.135 392.098,222.627 391.944,226.000 391.389 C 230.099 390.715,230.672 390.714,231.949 391.374 M226.059 415.202 C 225.584 416.566,224.583 417.055,221.516 417.421 C 219.130 417.706,214.806 418.771,214.200 419.223 C 212.710 420.334,196.901 420.451,195.144 419.365 C 194.930 419.233,193.820 418.974,192.677 418.790 C 191.535 418.605,189.880 418.272,189.000 418.048 C 188.120 417.825,185.821 417.447,183.891 417.208 C 180.298 416.764,178.400 416.169,178.400 415.487 C 178.400 415.275,178.130 415.326,177.800 415.600 C 177.415 415.919,177.200 416.805,177.200 418.071 L 177.200 420.044 179.477 421.051 C 180.730 421.605,181.945 422.287,182.177 422.567 C 187.355 428.799,216.362 428.710,222.756 422.444 C 223.641 421.576,224.913 420.542,225.583 420.147 C 226.749 419.458,226.800 419.313,226.800 416.714 C 226.800 413.697,226.674 413.439,226.059 415.202 " stroke="none" fill="#f2ad36" fill-rule="evenodd"></path><path id="path1" d="M0.000 219.600 L 0.000 439.200 200.000 439.200 L 400.000 439.200 400.000 219.600 L 400.000 0.000 200.000 0.000 L 0.000 0.000 0.000 219.600 M199.903 17.626 C 201.850 18.305,201.943 19.043,202.178 35.600 C 202.298 44.070,202.505 53.898,202.639 57.440 C 203.070 68.894,202.286 71.033,197.826 70.573 C 194.315 70.210,193.816 69.486,193.191 63.846 C 192.675 59.195,192.863 22.127,193.413 19.932 C 194.046 17.408,196.637 16.487,199.903 17.626 M314.417 41.479 C 315.510 42.653,313.447 48.529,311.077 50.996 C 310.229 51.878,309.002 53.530,308.349 54.667 C 307.696 55.803,306.714 57.027,306.167 57.385 C 305.620 57.743,304.707 59.018,304.139 60.218 C 303.571 61.418,302.889 62.400,302.623 62.400 C 301.961 62.400,300.554 63.995,300.206 65.141 C 300.049 65.658,299.197 66.827,298.312 67.738 C 296.591 69.512,294.400 72.515,294.400 73.101 C 294.400 73.297,293.601 74.151,292.625 75.000 C 291.649 75.848,290.749 76.949,290.624 77.446 C 290.500 77.942,289.647 78.855,288.730 79.474 C 287.813 80.093,286.716 81.223,286.292 81.984 C 284.938 84.419,283.343 84.945,280.360 83.943 C 277.349 82.932,276.866 81.452,278.811 79.200 C 279.476 78.430,280.134 77.350,280.273 76.800 C 280.646 75.327,281.472 74.204,282.639 73.579 C 283.207 73.275,284.002 72.380,284.405 71.591 C 284.807 70.802,285.781 69.606,286.568 68.933 C 287.356 68.260,288.000 67.582,288.000 67.426 C 288.000 67.270,288.225 66.906,288.500 66.616 C 288.775 66.326,289.360 65.577,289.800 64.952 C 290.240 64.327,291.230 63.143,292.000 62.320 C 293.869 60.324,294.125 59.981,294.677 58.738 C 294.936 58.154,295.687 57.358,296.344 56.969 C 297.002 56.581,297.866 55.529,298.263 54.631 C 299.088 52.770,299.458 52.318,300.709 51.649 C 301.200 51.386,301.866 50.537,302.190 49.763 C 302.513 48.988,303.396 47.755,304.151 47.021 C 304.906 46.288,305.856 45.177,306.262 44.553 C 306.668 43.928,307.690 42.669,308.534 41.754 L 310.068 40.090 312.093 40.625 C 313.207 40.919,314.253 41.303,314.417 41.479 M73.615 57.608 C 74.034 57.832,74.967 58.601,75.688 59.317 C 76.410 60.033,77.467 60.855,78.038 61.144 C 78.609 61.433,79.382 62.363,79.756 63.210 C 80.130 64.057,80.883 65.167,81.429 65.675 C 82.526 66.698,85.600 71.002,85.600 71.517 C 85.600 71.696,86.250 72.463,87.044 73.222 C 87.839 73.980,88.824 75.369,89.234 76.308 C 89.644 77.248,90.299 78.138,90.689 78.286 C 91.713 78.674,92.110 79.147,93.387 81.500 C 94.014 82.655,94.753 83.600,95.028 83.600 C 95.470 83.600,98.800 88.031,98.800 88.618 C 98.800 88.743,99.325 89.330,99.966 89.923 C 100.607 90.515,101.621 92.042,102.219 93.315 C 102.818 94.588,103.653 95.814,104.075 96.040 C 105.705 96.912,106.326 98.621,105.823 100.852 C 104.998 104.517,103.598 105.337,101.246 103.532 C 100.721 103.129,100.029 102.800,99.708 102.800 C 98.637 102.800,96.965 101.276,96.021 99.441 C 95.508 98.443,94.528 97.236,93.844 96.760 C 93.160 96.284,92.199 95.063,91.709 94.047 C 91.219 93.031,90.161 91.490,89.359 90.623 C 87.788 88.925,86.400 86.692,86.400 85.862 C 86.400 85.579,85.813 85.068,85.095 84.726 C 84.378 84.384,83.592 83.676,83.349 83.152 C 83.106 82.628,82.658 81.677,82.354 81.038 C 82.049 80.400,81.217 79.500,80.505 79.038 C 79.793 78.577,79.208 77.958,79.205 77.662 C 79.199 77.035,77.842 74.970,76.637 73.757 C 74.979 72.086,74.170 70.976,73.608 69.600 C 73.294 68.830,72.264 67.442,71.319 66.515 C 67.947 63.209,69.903 55.621,73.615 57.608 M240.800 87.810 C 246.981 88.697,247.704 88.855,248.770 89.550 C 249.743 90.186,255.752 91.581,257.572 91.593 C 259.091 91.604,261.267 92.448,262.821 93.630 C 263.603 94.225,265.223 95.027,266.421 95.412 C 267.620 95.797,268.913 96.267,269.295 96.456 C 269.677 96.645,270.235 96.800,270.535 96.800 C 270.836 96.800,271.626 97.320,272.291 97.956 C 272.957 98.592,274.198 99.338,275.051 99.614 C 277.167 100.299,279.200 101.317,279.200 101.691 C 279.200 101.861,279.388 102.000,279.618 102.000 C 279.848 102.000,280.487 102.451,281.039 103.002 C 281.590 103.554,282.786 104.384,283.695 104.849 C 285.448 105.743,285.936 106.167,286.632 107.399 C 286.870 107.820,287.769 108.559,288.629 109.040 C 289.489 109.522,290.570 110.589,291.031 111.412 C 291.492 112.235,292.393 113.183,293.034 113.518 C 294.328 114.194,295.168 115.130,295.187 115.917 C 295.203 116.543,295.783 117.297,297.500 118.919 C 298.215 119.594,298.800 120.384,298.800 120.674 C 298.800 120.963,298.935 121.201,299.100 121.203 C 299.516 121.207,300.400 123.195,300.400 124.126 C 300.400 124.547,301.036 125.474,301.813 126.186 C 303.213 127.469,304.800 130.905,304.800 132.654 C 304.800 133.130,305.385 134.396,306.100 135.466 C 307.686 137.840,308.198 139.312,308.791 143.200 C 309.532 148.053,310.101 150.972,310.390 151.400 C 313.368 155.814,313.334 186.617,310.345 191.400 C 310.023 191.916,309.353 196.275,308.779 201.600 C 308.259 206.429,307.563 209.166,306.463 210.714 C 305.702 211.784,305.283 213.060,304.398 217.000 C 303.514 220.940,303.029 222.219,301.928 223.507 C 301.314 224.226,300.712 225.306,300.591 225.907 C 299.930 229.183,298.652 232.158,297.372 233.401 C 296.617 234.134,296.000 235.100,296.000 235.548 C 296.000 236.324,295.759 237.041,294.558 239.830 C 294.267 240.507,293.517 241.497,292.892 242.030 C 292.258 242.572,291.529 243.781,291.241 244.769 C 290.938 245.811,290.080 247.197,289.152 248.144 C 288.286 249.027,287.473 250.166,287.345 250.675 C 287.218 251.184,286.997 251.600,286.856 251.600 C 286.714 251.600,286.169 252.410,285.644 253.400 C 285.119 254.390,284.510 255.200,284.291 255.200 C 283.641 255.200,282.359 256.907,282.123 258.086 C 281.897 259.214,281.321 259.861,279.897 260.584 C 279.078 261.000,278.964 261.164,277.946 263.400 C 277.345 264.721,276.929 265.196,275.839 265.808 C 275.440 266.032,274.660 267.022,274.107 268.008 C 273.554 268.994,272.292 270.610,271.302 271.600 C 270.313 272.590,269.004 274.124,268.395 275.009 C 267.785 275.894,266.817 276.870,266.243 277.177 C 265.669 277.484,265.200 277.975,265.200 278.268 C 265.200 278.560,265.020 278.800,264.800 278.800 C 264.580 278.800,264.400 279.078,264.400 279.418 C 264.400 280.130,262.928 281.712,261.898 282.107 C 261.514 282.255,260.884 283.056,260.499 283.888 C 259.656 285.711,259.375 286.025,257.700 287.009 C 256.843 287.512,256.400 288.080,256.400 288.676 C 256.400 289.214,255.668 290.311,254.588 291.391 C 253.592 292.387,252.149 294.454,251.381 295.984 C 250.613 297.513,249.655 298.998,249.253 299.283 C 248.499 299.815,247.377 302.118,246.419 305.099 C 246.118 306.034,245.361 307.372,244.736 308.072 C 244.111 308.771,243.600 309.640,243.600 310.001 C 243.600 310.362,243.350 311.455,243.043 312.429 C 242.737 313.403,242.257 315.243,241.975 316.519 C 241.694 317.794,241.314 318.930,241.132 319.042 C 240.949 319.155,240.800 319.519,240.800 319.852 C 240.800 320.185,240.537 320.720,240.216 321.041 C 239.894 321.363,239.551 322.205,239.453 322.913 C 239.354 323.621,239.008 325.910,238.684 328.000 C 237.992 332.452,238.403 333.636,241.776 336.914 C 242.779 337.889,243.600 338.985,243.600 339.350 C 243.600 339.714,244.140 340.969,244.800 342.138 C 246.690 345.487,246.459 351.579,244.320 354.800 C 242.142 358.080,242.354 363.822,244.710 365.325 C 248.685 367.862,248.914 385.203,245.016 388.552 C 244.419 389.065,243.719 389.915,243.460 390.442 C 243.200 390.969,242.136 391.850,241.095 392.400 C 239.794 393.087,239.205 393.650,239.210 394.200 C 239.243 397.866,237.750 403.444,236.374 404.795 C 235.586 405.568,234.598 406.830,234.177 407.600 C 233.756 408.370,232.999 409.465,232.495 410.033 C 231.887 410.718,231.496 411.797,231.334 413.233 C 231.200 414.425,230.968 415.580,230.818 415.800 C 230.669 416.020,230.199 417.345,229.773 418.745 C 229.229 420.537,228.661 421.544,227.856 422.145 C 227.226 422.615,225.966 423.751,225.056 424.668 C 224.098 425.634,222.642 426.587,221.600 426.931 C 219.159 427.736,217.504 428.491,216.881 429.085 C 214.062 431.775,194.242 431.534,188.750 428.743 C 187.504 428.110,185.701 427.436,184.742 427.246 C 182.045 426.711,180.899 426.134,179.498 424.608 C 178.787 423.834,177.923 423.200,177.579 423.200 C 176.719 423.200,174.442 420.906,174.151 419.747 C 174.020 419.226,173.766 418.800,173.586 418.800 C 173.406 418.800,172.760 417.781,172.151 416.536 C 171.032 414.248,169.604 412.401,168.954 412.399 C 168.759 412.399,167.970 411.859,167.200 411.200 C 166.430 410.541,165.583 410.001,165.319 410.001 C 164.071 409.999,162.779 408.927,161.762 407.053 C 161.149 405.924,160.408 404.758,160.114 404.462 C 158.065 402.394,158.274 398.821,160.623 395.743 C 162.374 393.449,162.343 392.868,160.395 391.427 C 159.523 390.782,158.380 389.612,157.856 388.827 C 157.332 388.042,156.333 386.810,155.637 386.089 C 151.868 382.183,151.793 369.008,155.533 367.821 C 156.196 367.611,156.786 366.545,158.023 363.326 C 158.273 362.675,158.109 362.083,157.380 361.008 C 156.841 360.214,156.400 359.461,156.400 359.335 C 156.400 359.209,155.868 358.500,155.218 357.759 C 151.718 353.773,152.003 338.942,155.601 337.800 C 156.001 337.673,157.086 336.676,158.013 335.584 C 158.940 334.493,159.924 333.600,160.201 333.600 C 161.842 333.600,161.735 330.078,159.976 326.200 C 159.159 324.400,158.120 320.905,157.775 318.800 C 157.267 315.695,156.212 312.166,155.624 311.600 C 154.825 310.832,153.200 307.395,153.200 306.474 C 153.200 305.490,151.969 303.181,150.362 301.153 C 149.616 300.210,148.727 298.635,148.388 297.653 C 148.049 296.672,147.420 295.674,146.991 295.435 C 145.867 294.808,144.811 293.581,144.570 292.621 C 144.455 292.164,143.904 291.432,143.345 290.995 C 142.036 289.970,140.881 288.788,139.461 287.019 C 138.834 286.239,138.146 285.600,137.932 285.600 C 137.468 285.600,136.400 284.587,136.400 284.148 C 136.400 283.715,133.920 281.200,133.493 281.200 C 133.004 281.200,132.305 280.403,131.603 279.046 C 131.275 278.411,130.584 277.601,130.067 277.246 C 129.550 276.891,128.828 276.262,128.463 275.850 C 128.098 275.437,127.395 274.680,126.900 274.168 C 126.405 273.656,126.000 273.048,126.000 272.818 C 126.000 272.588,125.747 272.400,125.437 272.400 C 125.128 272.400,124.094 271.455,123.139 270.300 C 120.809 267.481,120.528 267.200,120.029 267.200 C 119.793 267.200,119.600 267.033,119.600 266.829 C 119.600 266.624,119.358 266.215,119.063 265.920 C 118.767 265.624,118.057 264.641,117.485 263.734 C 116.912 262.828,115.898 261.697,115.231 261.222 C 114.148 260.451,113.319 259.128,112.668 257.134 C 112.549 256.768,111.973 256.228,111.388 255.934 C 110.305 255.390,109.958 254.865,108.457 251.500 C 107.992 250.455,107.436 249.600,107.222 249.600 C 106.643 249.600,104.978 246.468,104.397 244.285 C 104.117 243.231,103.502 242.061,103.030 241.685 C 101.934 240.809,100.891 238.582,100.116 235.464 C 99.779 234.109,98.921 232.010,98.210 230.800 C 96.835 228.459,96.341 226.797,95.595 222.000 C 95.338 220.350,94.592 217.583,93.937 215.851 C 90.255 206.121,90.307 172.498,94.017 164.564 C 94.667 163.172,95.200 161.656,95.200 161.194 C 95.200 160.402,95.391 159.411,96.472 154.600 C 96.719 153.500,97.491 151.852,98.188 150.938 C 98.954 149.932,99.654 148.354,99.962 146.938 C 100.242 145.652,100.635 144.287,100.835 143.905 C 101.036 143.523,101.200 142.967,101.200 142.670 C 101.200 142.372,101.825 141.560,102.589 140.865 C 103.530 140.009,104.181 138.901,104.609 137.429 C 105.019 136.016,105.790 134.673,106.809 133.590 C 107.672 132.674,108.858 130.945,109.443 129.747 C 110.029 128.550,110.889 127.376,111.354 127.138 C 112.444 126.582,113.580 125.176,113.591 124.370 C 113.602 123.569,115.154 122.123,116.200 121.939 C 116.640 121.861,117.298 121.201,117.663 120.471 C 118.543 118.710,119.579 117.603,120.362 117.587 C 121.185 117.571,122.400 116.648,122.400 116.039 C 122.400 115.308,123.647 114.179,125.314 113.402 C 126.146 113.013,127.030 112.318,127.277 111.856 C 127.976 110.550,128.450 110.193,131.331 108.803 C 132.810 108.090,134.240 107.205,134.510 106.835 C 135.144 105.966,137.498 104.574,138.886 104.247 C 139.483 104.107,140.418 103.546,140.963 103.001 C 142.250 101.714,145.331 100.000,146.358 100.000 C 147.455 100.000,149.122 99.233,150.800 97.956 C 152.144 96.934,152.625 96.762,156.200 96.029 C 159.341 95.385,162.535 94.403,163.162 93.888 C 164.007 93.196,166.060 92.542,169.000 92.029 C 175.298 90.930,178.806 90.400,179.777 90.400 C 180.362 90.400,181.416 90.098,182.120 89.729 C 187.087 87.124,226.940 85.821,240.800 87.810 M380.926 119.265 C 384.220 121.019,383.348 126.329,379.569 127.535 C 375.303 128.896,374.173 129.200,373.383 129.200 C 372.902 129.200,372.070 129.544,371.535 129.965 C 370.307 130.931,367.503 131.837,363.400 132.595 C 357.805 133.627,357.038 133.838,355.200 134.845 C 353.312 135.879,351.255 136.444,346.600 137.205 C 345.060 137.457,343.149 137.829,342.354 138.031 C 338.522 139.008,336.064 138.257,334.755 135.712 C 334.068 134.377,333.943 133.819,334.302 133.699 C 334.576 133.608,334.800 133.298,334.800 133.011 C 334.800 132.371,337.471 131.093,340.300 130.379 C 341.455 130.087,342.400 129.716,342.400 129.553 C 342.400 128.934,346.728 127.302,349.600 126.839 C 355.193 125.938,356.997 125.474,358.200 124.627 C 359.707 123.567,361.441 123.002,365.000 122.412 C 370.847 121.442,372.241 121.102,373.600 120.311 C 374.771 119.630,376.942 119.095,379.526 118.850 C 379.816 118.822,380.446 119.009,380.926 119.265 M19.800 153.401 C 23.384 153.707,27.210 154.338,30.000 155.083 C 33.744 156.082,40.683 157.111,48.200 157.783 C 55.440 158.429,58.276 158.818,61.600 159.622 C 62.590 159.861,64.660 160.210,66.200 160.398 C 78.682 161.921,80.583 162.873,79.383 167.000 C 78.111 171.374,72.854 172.420,65.136 169.833 C 63.401 169.252,59.641 168.777,50.600 167.995 C 41.627 167.220,38.205 166.732,35.200 165.800 C 33.550 165.289,30.760 164.666,29.000 164.417 C 27.240 164.167,24.799 163.792,23.576 163.582 C 22.353 163.372,20.553 163.199,19.576 163.198 C 14.760 163.192,10.890 160.651,9.894 156.840 C 9.420 155.025,13.507 152.550,16.200 153.021 C 16.640 153.098,18.260 153.269,19.800 153.401 M341.323 223.731 C 342.821 224.251,344.621 225.152,345.323 225.734 C 346.025 226.316,347.645 227.107,348.923 227.491 C 350.209 227.879,352.021 228.831,352.982 229.625 C 353.936 230.414,355.591 231.376,356.659 231.762 C 357.726 232.149,359.104 232.656,359.720 232.889 C 360.335 233.122,361.325 233.828,361.918 234.457 C 362.512 235.085,363.206 235.600,363.461 235.600 C 364.472 235.600,369.056 237.959,369.970 238.949 C 370.503 239.527,371.173 240.000,371.459 240.000 C 372.518 240.000,376.313 242.075,377.773 243.452 C 378.602 244.235,379.874 245.122,380.598 245.425 C 382.842 246.363,383.525 247.707,383.099 250.349 C 382.477 254.200,380.454 255.232,377.563 253.173 C 376.965 252.748,376.294 252.400,376.070 252.400 C 375.038 252.400,369.278 249.642,368.330 248.694 C 367.746 248.110,366.758 247.520,366.134 247.383 C 363.804 246.871,360.754 245.468,360.064 244.590 C 359.671 244.091,358.551 243.411,357.575 243.079 C 353.869 241.819,352.178 241.012,351.529 240.193 C 351.160 239.728,350.080 239.113,349.129 238.827 C 345.643 237.777,343.083 236.647,342.204 235.768 C 341.708 235.272,340.461 234.581,339.432 234.231 C 336.533 233.247,334.669 232.183,333.589 230.897 C 333.045 230.249,332.181 229.498,331.668 229.228 C 328.826 227.732,328.387 225.755,330.415 223.584 L 331.630 222.284 335.115 222.535 C 337.123 222.680,339.754 223.187,341.323 223.731 M84.681 252.890 C 85.933 253.494,87.142 257.600,86.068 257.600 C 85.885 257.600,85.494 258.050,85.200 258.600 C 84.906 259.150,84.425 259.600,84.132 259.600 C 83.840 259.600,83.600 259.780,83.600 260.000 C 83.600 260.220,83.338 260.400,83.019 260.400 C 81.992 260.400,80.422 261.300,80.193 262.021 C 79.973 262.716,77.251 264.180,74.200 265.243 C 73.320 265.549,72.179 266.295,71.664 266.900 C 71.150 267.505,70.570 268.000,70.375 268.000 C 69.458 268.000,65.215 270.316,63.655 271.668 C 62.695 272.500,61.315 273.292,60.589 273.428 C 59.320 273.667,57.600 274.887,57.600 275.551 C 57.600 275.726,56.205 276.566,54.500 277.417 C 52.795 278.268,50.950 279.422,50.400 279.982 C 49.086 281.321,44.110 283.200,41.879 283.200 C 40.916 283.200,39.200 280.497,39.200 278.980 C 39.200 277.485,44.159 272.673,46.991 271.421 C 48.145 270.910,49.746 269.856,50.547 269.078 C 51.348 268.300,52.858 267.379,53.902 267.032 C 54.947 266.686,56.314 265.858,56.941 265.194 C 58.039 264.031,61.862 262.000,62.954 262.000 C 63.245 262.000,63.915 261.491,64.442 260.869 C 64.969 260.247,65.670 259.618,66.000 259.472 C 66.330 259.325,66.870 259.035,67.200 258.826 C 67.530 258.618,68.626 258.153,69.637 257.793 C 70.647 257.434,71.907 256.746,72.437 256.264 C 73.500 255.298,75.500 254.373,78.706 253.366 C 79.864 253.002,80.906 252.551,81.022 252.365 C 81.266 251.969,83.410 252.277,84.681 252.890 M302.000 274.600 C 302.274 274.930,302.658 275.200,302.854 275.200 C 303.552 275.200,307.196 277.813,307.413 278.469 C 307.535 278.838,308.541 279.720,309.648 280.431 C 310.756 281.142,311.961 282.191,312.326 282.762 C 313.071 283.929,313.742 284.516,315.200 285.278 C 316.552 285.984,317.087 286.524,317.257 287.356 C 317.393 288.021,318.027 288.464,320.495 289.618 C 321.098 289.900,321.812 290.631,322.084 291.244 C 322.385 291.926,323.202 292.630,324.188 293.060 C 325.075 293.446,326.501 294.458,327.358 295.308 C 328.215 296.159,330.089 297.518,331.522 298.328 C 333.319 299.343,334.389 300.263,334.965 301.289 C 335.424 302.108,336.070 303.104,336.400 303.502 C 338.024 305.460,338.008 305.390,337.082 306.428 C 334.793 308.997,331.218 309.147,328.729 306.779 C 327.792 305.887,325.939 304.634,324.612 303.995 C 323.286 303.356,321.523 302.106,320.695 301.217 C 319.867 300.327,318.945 299.600,318.645 299.600 C 317.998 299.600,315.200 297.118,315.200 296.543 C 315.200 296.323,314.296 295.734,313.191 295.235 C 311.928 294.664,310.963 293.903,310.591 293.182 C 310.265 292.552,309.353 291.730,308.564 291.356 C 307.774 290.981,306.671 289.983,306.111 289.137 C 305.552 288.292,304.911 287.600,304.687 287.600 C 304.051 287.600,298.073 281.131,297.552 279.879 C 296.367 277.032,300.222 272.457,302.000 274.600 " stroke="none" fill="#3b53b4" fill-rule="evenodd"></path><path id="path2" d="M309.036 45.851 C 308.899 46.209,308.993 46.751,309.246 47.056 C 309.826 47.755,310.800 47.062,310.800 45.951 C 310.800 45.011,309.389 44.931,309.036 45.851 M304.970 50.577 C 304.713 51.600,304.994 52.400,305.610 52.400 C 306.179 52.400,306.823 50.924,306.556 50.229 C 306.188 49.271,305.246 49.478,304.970 50.577 M300.826 57.042 C 300.471 58.624,300.449 59.409,300.749 59.709 C 301.289 60.249,301.484 59.677,301.711 56.900 C 301.936 54.141,301.458 54.218,300.826 57.042 M296.019 62.774 C 295.141 64.006,295.136 64.065,295.856 64.601 C 297.104 65.529,298.285 64.094,297.502 62.600 L 296.925 61.500 296.019 62.774 M76.474 64.886 C 75.871 65.489,75.858 68.184,76.455 69.139 C 76.951 69.934,78.726 69.859,79.044 69.031 C 79.373 68.171,77.007 64.353,76.474 64.886 M292.100 66.692 C 291.825 66.788,291.600 67.107,291.600 67.400 C 291.600 67.693,291.379 68.007,291.108 68.097 C 290.753 68.216,290.824 68.577,291.366 69.404 L 292.115 70.547 293.024 69.490 C 294.305 68.001,293.690 66.138,292.100 66.692 M80.059 71.431 C 79.605 72.426,79.828 73.018,81.461 75.157 C 81.779 75.574,82.800 74.187,82.800 73.337 C 82.800 70.989,80.871 69.648,80.059 71.431 M287.231 71.943 C 286.800 72.747,287.052 75.061,287.607 75.404 C 288.228 75.788,290.152 72.731,289.722 72.044 C 289.115 71.076,287.725 71.020,287.231 71.943 M84.700 76.278 C 84.027 76.452,83.682 77.600,84.303 77.600 C 84.643 77.600,85.600 80.434,85.600 81.440 C 85.600 81.922,85.836 82.030,86.500 81.852 C 86.995 81.719,87.659 81.608,87.976 81.605 C 88.409 81.601,88.374 81.469,87.836 81.076 C 87.442 80.788,86.902 79.584,86.635 78.401 C 86.140 76.202,85.922 75.963,84.700 76.278 M283.074 76.659 C 282.848 76.885,283.114 78.760,283.424 79.134 C 283.485 79.208,284.088 78.741,284.763 78.096 C 285.438 77.451,285.872 76.805,285.728 76.662 C 285.390 76.323,283.412 76.322,283.074 76.659 M89.683 82.477 C 88.554 83.606,89.378 87.200,90.765 87.200 C 91.857 87.200,92.618 86.145,92.034 85.441 C 91.779 85.134,91.255 84.233,90.868 83.439 C 90.320 82.310,90.060 82.100,89.683 82.477 M93.280 88.480 C 92.600 89.160,92.676 89.705,93.700 91.472 C 94.763 93.308,95.793 93.335,96.152 91.538 C 96.605 89.274,94.610 87.150,93.280 88.480 M96.971 93.731 C 96.859 94.023,97.223 95.058,97.779 96.031 C 98.335 97.004,98.793 98.115,98.795 98.500 C 98.798 98.902,99.102 99.200,99.509 99.200 C 100.257 99.200,100.226 94.892,99.470 93.700 C 99.049 93.036,97.229 93.059,96.971 93.731 M368.800 124.672 C 365.939 124.966,365.476 125.168,366.057 125.868 C 366.599 126.521,374.050 126.454,376.308 125.775 C 379.403 124.845,374.343 124.102,368.800 124.672 M355.400 128.833 C 349.812 129.705,350.190 129.577,351.170 130.264 C 352.123 130.931,358.253 130.832,361.400 130.098 L 363.000 129.725 361.800 129.222 C 360.113 128.515,358.186 128.398,355.400 128.833 M339.472 133.648 C 337.320 134.899,341.211 135.540,345.400 134.624 C 347.738 134.112,347.771 134.087,346.674 133.649 C 345.259 133.085,340.442 133.084,339.472 133.648 M15.094 155.839 C 14.963 155.971,14.952 156.331,15.070 156.639 C 15.327 157.307,16.638 157.385,17.028 156.755 C 17.468 156.042,15.720 155.213,15.094 155.839 M198.790 156.723 C 198.025 157.052,196.840 157.561,196.155 157.854 C 194.731 158.462,194.199 159.023,192.800 161.390 C 192.250 162.321,191.456 163.571,191.036 164.169 C 189.503 166.349,189.325 173.106,190.714 176.398 C 192.163 179.831,192.377 183.083,191.215 184.000 C 191.076 184.110,190.533 184.830,190.010 185.600 C 187.712 188.980,182.694 190.570,179.087 189.062 C 176.430 187.951,176.363 186.902,178.510 180.033 C 179.438 177.067,179.295 170.619,178.251 168.295 C 177.931 167.583,177.451 166.280,177.185 165.400 C 176.291 162.446,173.502 159.690,170.550 158.843 C 169.314 158.488,166.400 159.331,166.400 160.043 C 166.400 160.239,166.184 160.400,165.919 160.400 C 162.774 160.400,160.246 168.682,161.585 174.600 C 161.784 175.480,162.166 177.370,162.434 178.800 C 163.006 181.853,163.483 182.906,165.153 184.800 C 165.832 185.570,166.390 186.431,166.394 186.714 C 166.401 187.340,167.436 189.048,168.626 190.400 C 171.121 193.235,167.015 205.658,164.122 204.027 C 157.535 200.313,147.362 204.102,146.320 210.657 L 145.948 213.000 147.402 214.267 C 151.162 217.542,155.686 218.832,158.590 217.457 C 159.817 216.876,161.076 216.400,161.387 216.400 C 161.698 216.400,162.051 216.240,162.172 216.045 C 162.648 215.275,165.292 215.154,167.372 215.809 C 169.802 216.573,170.418 217.413,171.178 221.000 C 171.812 223.987,173.165 228.467,173.595 229.000 C 174.121 229.653,174.828 232.408,175.238 235.400 C 177.207 249.758,178.694 286.555,177.595 293.704 C 177.351 295.297,176.993 301.190,176.800 306.800 C 176.076 327.889,176.040 328.364,174.927 331.100 C 174.368 332.475,173.777 333.600,173.615 333.600 C 173.453 333.600,172.553 334.156,171.616 334.835 L 169.912 336.069 170.961 336.613 C 173.754 338.062,214.571 338.573,222.000 337.252 C 227.345 336.301,229.367 335.630,230.310 334.496 C 232.543 331.807,232.596 331.655,231.453 331.220 C 228.907 330.252,227.590 322.523,227.940 310.600 C 227.959 309.940,227.783 305.440,227.549 300.600 C 227.236 294.139,227.250 287.865,227.603 277.000 C 227.867 268.860,228.146 259.950,228.224 257.200 C 228.643 242.423,230.182 223.078,231.184 220.000 C 231.578 218.790,232.113 216.720,232.374 215.400 C 232.635 214.080,233.017 212.447,233.224 211.772 C 233.431 211.096,233.606 210.286,233.613 209.972 C 233.630 209.257,234.983 207.600,235.550 207.600 C 236.021 207.600,239.360 208.650,240.600 209.187 C 243.025 210.239,244.179 210.387,246.746 209.977 C 248.195 209.745,249.475 209.429,249.590 209.274 C 249.706 209.119,250.520 208.652,251.400 208.235 C 254.847 206.605,255.451 206.213,256.900 204.667 C 257.725 203.787,258.400 202.917,258.400 202.733 C 258.400 202.550,258.536 202.400,258.702 202.400 C 260.953 202.400,259.494 194.210,257.036 193.044 C 256.349 192.718,255.140 192.012,254.348 191.475 C 251.816 189.757,248.882 189.528,246.127 190.834 C 244.847 191.441,242.720 192.339,241.400 192.829 C 239.813 193.418,238.408 194.321,237.252 195.495 C 235.652 197.120,235.381 197.250,234.052 197.022 C 230.713 196.449,230.569 196.377,229.801 194.887 C 229.379 194.069,228.711 192.922,228.317 192.338 C 226.539 189.705,227.891 185.603,231.944 181.335 C 233.594 179.598,236.075 169.908,235.287 168.279 C 235.053 167.795,234.544 166.500,234.155 165.400 C 233.276 162.914,229.864 159.632,227.200 158.711 C 225.606 158.160,220.131 162.115,219.172 164.511 C 218.888 165.220,218.116 166.600,217.456 167.577 C 215.666 170.228,215.701 176.584,217.525 180.191 C 218.191 181.506,218.643 182.730,218.531 182.911 C 218.419 183.092,218.209 184.086,218.064 185.120 C 217.525 188.959,211.574 190.256,205.163 187.931 C 204.593 187.725,203.199 186.391,202.064 184.968 L 200.002 182.381 201.001 180.798 C 201.550 179.928,202.000 179.015,202.000 178.770 C 202.000 178.349,203.165 176.039,203.600 175.597 C 207.766 171.359,208.762 162.354,205.444 158.928 C 203.728 157.155,200.369 156.042,198.790 156.723 M24.300 159.322 C 22.162 159.786,21.867 160.267,23.500 160.628 C 24.105 160.762,25.230 161.065,26.000 161.302 C 28.441 162.051,45.433 161.933,46.208 161.161 C 47.581 159.793,29.232 158.253,24.300 159.322 M51.629 163.611 C 47.680 164.439,49.453 164.994,59.200 165.980 C 68.445 166.915,77.831 166.057,74.522 164.580 C 72.586 163.716,54.733 162.960,51.629 163.611 M200.281 169.452 C 199.586 170.148,198.920 169.061,199.436 168.072 C 199.743 167.482,200.029 166.640,200.070 166.200 C 200.111 165.760,200.212 166.274,200.296 167.343 C 200.379 168.412,200.372 169.361,200.281 169.452 M170.166 167.600 C 172.460 167.600,172.140 178.047,169.818 178.938 C 168.870 179.301,168.187 177.464,167.630 173.057 L 167.133 169.114 168.260 167.938 C 168.880 167.290,169.450 166.950,169.527 167.181 C 169.604 167.411,169.891 167.600,170.166 167.600 M228.394 170.882 C 228.388 172.939,227.865 174.971,226.925 176.592 C 226.486 177.348,226.410 177.321,225.239 175.992 C 223.381 173.883,223.391 169.544,225.257 167.951 L 226.514 166.878 227.457 167.821 C 228.212 168.576,228.399 169.185,228.394 170.882 M198.699 191.480 C 199.193 191.965,200.273 192.651,201.099 193.005 C 201.924 193.359,203.110 193.908,203.732 194.224 C 204.355 194.541,205.165 194.801,205.532 194.801 C 205.900 194.802,206.789 195.162,207.510 195.601 C 208.958 196.485,213.343 196.739,213.820 195.967 C 214.628 194.661,217.567 194.002,219.888 194.606 C 222.245 195.220,222.360 195.314,223.574 197.600 C 223.983 198.370,225.015 199.810,225.866 200.800 C 228.770 204.177,228.964 207.075,226.534 210.806 C 224.625 213.737,223.933 217.375,223.187 228.400 C 222.799 234.137,222.452 237.370,221.600 243.200 C 221.359 244.850,220.999 250.250,220.801 255.200 C 220.602 260.150,220.234 267.890,219.984 272.400 C 219.452 281.957,219.738 323.306,220.353 325.763 C 220.702 327.158,220.596 327.634,219.359 330.205 L 217.974 333.084 214.687 333.334 C 212.879 333.471,205.883 333.706,199.139 333.855 L 186.879 334.126 185.906 333.077 C 184.348 331.396,183.806 327.505,184.239 321.118 C 184.438 318.193,184.600 300.050,184.600 280.800 C 184.600 244.096,184.589 243.821,182.800 237.200 C 182.414 235.770,181.876 233.250,181.605 231.600 C 180.610 225.537,180.050 223.133,179.295 221.684 C 178.870 220.868,178.145 219.480,177.683 218.600 C 177.221 217.720,176.562 216.341,176.219 215.536 C 175.877 214.730,174.947 213.294,174.154 212.344 C 171.750 209.467,171.724 207.216,174.056 203.926 C 174.474 203.336,175.087 202.088,175.416 201.154 C 176.649 197.659,177.764 196.713,180.278 197.027 C 182.771 197.338,184.760 196.835,187.627 195.169 C 188.632 194.585,190.072 193.813,190.827 193.455 C 191.582 193.096,192.977 192.091,193.927 191.222 C 195.835 189.478,196.705 189.525,198.699 191.480 M250.317 199.014 L 251.400 200.028 250.400 200.805 C 248.247 202.478,240.933 201.307,242.672 199.568 C 244.345 197.895,248.780 197.573,250.317 199.014 M333.913 225.715 L 332.826 226.145 334.797 227.473 C 335.881 228.203,337.042 228.800,337.377 228.800 C 337.711 228.800,338.095 229.238,338.229 229.773 C 338.461 230.696,341.207 232.391,342.496 232.406 C 343.737 232.420,346.673 233.744,347.400 234.618 C 347.965 235.296,349.372 235.911,352.187 236.711 C 355.589 237.677,356.207 237.981,356.396 238.781 C 356.567 239.507,357.158 239.897,359.008 240.507 C 360.324 240.940,361.713 241.453,362.095 241.647 C 362.477 241.841,363.112 242.000,363.507 242.000 C 363.926 242.000,364.401 242.468,364.649 243.125 C 364.996 244.043,365.510 244.377,367.437 244.936 C 368.737 245.313,370.316 245.788,370.946 245.993 C 371.790 246.267,372.238 246.219,372.646 245.811 C 373.821 244.637,372.827 242.841,370.985 242.813 C 369.340 242.787,365.407 240.977,365.255 240.176 C 365.067 239.186,364.685 238.951,362.000 238.180 C 358.568 237.194,357.587 236.671,357.341 235.700 C 357.216 235.205,356.809 234.800,356.437 234.800 C 356.064 234.800,355.589 234.640,355.380 234.444 C 355.171 234.249,353.981 233.798,352.735 233.443 C 351.208 233.008,350.139 232.405,349.456 231.594 C 348.333 230.258,345.314 228.801,343.667 228.799 C 342.436 228.797,340.081 227.475,339.744 226.598 C 339.618 226.269,339.184 226.000,338.781 226.000 C 338.377 226.000,337.936 225.820,337.800 225.600 C 337.486 225.091,335.328 225.155,333.913 225.715 M374.080 246.880 C 373.034 247.926,375.315 249.954,376.910 249.396 C 377.179 249.301,377.917 249.034,378.550 248.803 L 379.700 248.382 377.750 247.393 C 375.570 246.287,374.783 246.177,374.080 246.880 M78.700 256.522 C 75.976 257.113,76.172 258.000,79.026 258.000 C 81.810 258.000,83.091 257.434,82.238 256.581 C 81.593 255.936,81.416 255.933,78.700 256.522 M71.000 260.596 C 70.120 260.922,69.102 261.191,68.737 261.194 C 68.273 261.198,68.137 261.439,68.284 262.000 C 68.556 263.040,72.247 263.074,74.546 262.058 C 77.310 260.836,74.019 259.480,71.000 260.596 M62.475 265.200 C 61.884 265.530,61.329 265.841,61.243 265.890 C 61.157 265.940,61.314 266.255,61.592 266.590 C 62.135 267.244,65.003 267.443,65.368 266.852 C 65.486 266.660,66.127 266.395,66.792 266.262 C 67.461 266.128,68.000 265.765,68.000 265.447 C 68.000 264.601,63.878 264.417,62.475 265.200 M58.830 268.564 C 58.510 268.949,57.678 269.200,56.722 269.200 C 54.971 269.200,54.000 269.908,54.000 271.184 C 54.000 272.088,55.112 272.769,55.540 272.128 C 55.683 271.914,56.790 271.468,58.000 271.137 C 60.306 270.505,60.784 269.878,59.891 268.656 C 59.407 267.995,59.310 267.986,58.830 268.564 M49.000 273.704 C 48.120 274.191,47.351 274.611,47.291 274.638 C 46.464 274.999,48.000 276.000,49.381 276.000 C 51.757 276.000,53.725 274.981,53.210 274.018 C 52.438 272.576,51.204 272.484,49.000 273.704 M45.481 277.813 C 45.086 278.356,44.366 278.818,43.881 278.841 C 43.294 278.868,43.467 278.997,44.400 279.227 C 46.298 279.696,46.800 279.442,46.800 278.013 C 46.800 276.551,46.439 276.496,45.481 277.813 M300.533 278.631 C 300.067 279.845,301.270 280.462,302.400 279.590 C 303.209 278.966,303.266 278.816,302.700 278.809 C 302.315 278.804,302.000 278.620,302.000 278.400 C 302.000 277.753,300.797 277.942,300.533 278.631 M304.916 281.694 C 303.702 283.262,304.477 284.800,306.483 284.800 C 307.374 284.800,308.785 283.791,308.357 283.459 C 305.830 281.501,305.283 281.220,304.916 281.694 M309.079 285.500 C 307.656 288.036,311.078 290.762,313.120 288.720 C 313.741 288.099,313.732 287.602,313.100 287.594 C 312.825 287.590,311.991 287.050,311.246 286.394 C 309.860 285.172,309.375 284.972,309.079 285.500 M313.600 290.992 C 313.600 292.582,313.713 292.808,314.600 292.992 C 315.150 293.107,316.084 293.302,316.675 293.427 C 317.948 293.695,318.770 294.654,318.787 295.892 C 318.796 296.527,319.117 296.864,319.900 297.060 C 320.505 297.211,321.530 297.658,322.179 298.051 C 323.044 298.577,323.496 298.652,323.879 298.335 C 325.343 297.119,323.663 295.200,321.135 295.200 C 319.712 295.200,319.633 295.128,319.323 293.559 C 319.028 292.067,318.836 291.864,317.204 291.312 C 316.217 290.978,315.172 290.367,314.882 289.953 C 314.027 288.733,313.600 289.080,313.600 290.992 M325.592 300.210 C 325.314 300.545,325.157 300.869,325.243 300.931 C 327.476 302.515,328.218 302.665,329.400 301.767 C 330.192 301.166,330.190 301.152,329.200 300.389 C 327.994 299.459,326.285 299.374,325.592 300.210 M223.906 361.393 C 222.864 361.680,221.400 362.275,220.654 362.715 C 217.938 364.318,201.087 365.584,192.081 364.863 C 176.721 363.633,166.931 364.666,169.106 367.286 C 170.417 368.867,180.821 369.772,194.348 369.484 C 223.625 368.859,225.575 368.667,228.302 366.140 C 228.860 365.623,229.606 365.200,229.958 365.200 C 230.876 365.199,232.800 363.437,232.800 362.598 C 232.800 360.838,228.191 360.213,223.906 361.393 M226.000 391.389 C 222.627 391.944,222.135 392.098,219.600 393.406 C 214.127 396.228,182.736 396.424,177.915 393.666 C 172.769 390.721,170.044 392.919,173.934 396.877 C 177.086 400.084,211.928 401.351,224.400 398.712 C 225.610 398.456,226.690 398.138,226.800 398.004 C 227.379 397.301,229.605 396.086,231.102 395.656 C 233.163 395.064,234.383 393.543,233.576 392.572 C 232.119 390.815,230.770 390.605,226.000 391.389 M225.158 410.804 C 224.065 411.621,220.518 412.642,216.800 413.212 C 215.590 413.397,213.520 413.739,212.200 413.972 C 208.717 414.586,199.406 414.489,193.400 413.775 C 185.613 412.849,179.890 412.820,178.913 413.700 C 178.486 414.085,177.746 414.400,177.269 414.400 C 176.328 414.400,176.210 414.681,176.776 415.574 C 177.077 416.050,177.247 416.059,177.770 415.625 C 178.116 415.338,178.400 415.275,178.400 415.487 C 178.400 416.169,180.298 416.764,183.891 417.208 C 185.821 417.447,188.120 417.825,189.000 418.048 C 189.880 418.272,191.535 418.605,192.677 418.790 C 193.820 418.974,194.930 419.233,195.144 419.365 C 196.901 420.451,212.710 420.334,214.200 419.223 C 214.806 418.771,219.130 417.706,221.516 417.421 C 224.577 417.055,225.516 416.589,226.161 415.112 C 226.592 414.127,226.746 413.999,226.780 414.600 C 226.858 415.993,227.519 414.400,227.827 412.079 C 228.144 409.689,227.233 409.254,225.158 410.804 " stroke="none" fill="#584832" fill-rule="evenodd"></path><path id="path3" d="M199.600 87.198 C 190.588 87.705,184.222 88.626,182.120 89.729 C 181.416 90.098,180.362 90.400,179.777 90.400 C 178.806 90.400,175.298 90.930,169.000 92.029 C 166.060 92.542,164.007 93.196,163.162 93.888 C 162.535 94.403,159.341 95.385,156.200 96.029 C 152.625 96.762,152.144 96.934,150.800 97.956 C 149.122 99.233,147.455 100.000,146.358 100.000 C 145.331 100.000,142.250 101.714,140.963 103.001 C 140.418 103.546,139.483 104.107,138.886 104.247 C 137.498 104.574,135.144 105.966,134.510 106.835 C 134.240 107.205,132.810 108.090,131.331 108.803 C 128.450 110.193,127.976 110.550,127.277 111.856 C 127.030 112.318,126.146 113.013,125.314 113.402 C 123.647 114.179,122.400 115.308,122.400 116.039 C 122.400 116.648,121.185 117.571,120.362 117.587 C 119.579 117.603,118.543 118.710,117.663 120.471 C 117.298 121.201,116.640 121.861,116.200 121.939 C 115.154 122.123,113.602 123.569,113.591 124.370 C 113.580 125.176,112.444 126.582,111.354 127.138 C 110.889 127.376,110.029 128.550,109.443 129.747 C 108.858 130.945,107.672 132.674,106.809 133.590 C 105.790 134.673,105.019 136.016,104.609 137.429 C 104.181 138.901,103.530 140.009,102.589 140.865 C 101.825 141.560,101.200 142.372,101.200 142.670 C 101.200 142.967,101.036 143.523,100.835 143.905 C 100.635 144.287,100.242 145.652,99.962 146.938 C 99.654 148.354,98.954 149.932,98.188 150.938 C 97.491 151.852,96.719 153.500,96.472 154.600 C 95.391 159.411,95.200 160.402,95.200 161.194 C 95.200 161.656,94.667 163.172,94.017 164.564 C 90.307 172.498,90.255 206.121,93.937 215.851 C 94.592 217.583,95.338 220.350,95.595 222.000 C 96.341 226.797,96.835 228.459,98.210 230.800 C 98.921 232.010,99.779 234.109,100.116 235.464 C 100.891 238.582,101.934 240.809,103.030 241.685 C 103.502 242.061,104.117 243.231,104.397 244.285 C 104.978 246.468,106.643 249.600,107.222 249.600 C 107.436 249.600,107.992 250.455,108.457 251.500 C 109.958 254.865,110.305 255.390,111.388 255.934 C 111.973 256.228,112.549 256.768,112.668 257.134 C 113.319 259.128,114.148 260.451,115.231 261.222 C 115.898 261.697,116.912 262.828,117.485 263.734 C 118.057 264.641,118.767 265.624,119.063 265.920 C 119.358 266.215,119.600 266.624,119.600 266.829 C 119.600 267.033,119.793 267.200,120.029 267.200 C 120.528 267.200,120.809 267.481,123.139 270.300 C 124.094 271.455,125.128 272.400,125.437 272.400 C 125.747 272.400,126.000 272.588,126.000 272.818 C 126.000 273.048,126.405 273.656,126.900 274.168 C 127.395 274.680,128.098 275.437,128.463 275.850 C 128.828 276.262,129.550 276.891,130.067 277.246 C 130.584 277.601,131.275 278.411,131.603 279.046 C 132.305 280.403,133.004 281.200,133.493 281.200 C 133.920 281.200,136.400 283.715,136.400 284.148 C 136.400 284.587,137.468 285.600,137.932 285.600 C 138.146 285.600,138.834 286.239,139.461 287.019 C 140.881 288.788,142.036 289.970,143.345 290.995 C 143.904 291.432,144.455 292.164,144.570 292.621 C 144.811 293.581,145.867 294.808,146.991 295.435 C 147.420 295.674,148.049 296.672,148.388 297.653 C 148.727 298.635,149.616 300.210,150.362 301.153 C 151.969 303.181,153.200 305.490,153.200 306.474 C 153.200 307.395,154.825 310.832,155.624 311.600 C 156.212 312.166,157.267 315.695,157.775 318.800 C 158.120 320.905,159.159 324.400,159.976 326.200 C 161.735 330.078,161.842 333.600,160.201 333.600 C 159.924 333.600,158.940 334.493,158.013 335.584 C 157.086 336.676,156.001 337.673,155.601 337.800 C 152.003 338.942,151.718 353.773,155.218 357.759 C 155.868 358.500,156.400 359.209,156.400 359.335 C 156.400 359.461,156.841 360.214,157.380 361.008 C 158.109 362.083,158.273 362.675,158.023 363.326 C 156.786 366.545,156.196 367.611,155.533 367.821 C 151.793 369.008,151.868 382.183,155.637 386.089 C 156.333 386.810,157.332 388.042,157.856 388.827 C 158.380 389.612,159.523 390.782,160.395 391.427 C 162.343 392.868,162.374 393.449,160.623 395.743 C 158.274 398.821,158.065 402.394,160.114 404.462 C 160.408 404.758,161.149 405.924,161.762 407.053 C 162.779 408.927,164.071 409.999,165.319 410.001 C 165.583 410.001,166.430 410.541,167.200 411.200 C 167.970 411.859,168.759 412.399,168.954 412.399 C 169.604 412.401,171.032 414.248,172.151 416.536 C 172.760 417.781,173.406 418.800,173.586 418.800 C 173.766 418.800,174.020 419.226,174.151 419.747 C 174.442 420.906,176.719 423.200,177.579 423.200 C 177.923 423.200,178.787 423.834,179.498 424.608 C 180.899 426.134,182.045 426.711,184.742 427.246 C 185.701 427.436,187.504 428.110,188.750 428.743 C 194.242 431.534,214.062 431.775,216.881 429.085 C 217.504 428.491,219.159 427.736,221.600 426.931 C 222.642 426.587,224.098 425.634,225.056 424.668 C 225.966 423.751,227.226 422.615,227.856 422.145 C 228.661 421.544,229.229 420.537,229.773 418.745 C 230.199 417.345,230.669 416.020,230.818 415.800 C 230.968 415.580,231.200 414.425,231.334 413.233 C 231.496 411.797,231.887 410.718,232.495 410.033 C 232.999 409.465,233.756 408.370,234.177 407.600 C 234.598 406.830,235.586 405.568,236.374 404.795 C 237.750 403.444,239.243 397.866,239.210 394.200 C 239.205 393.650,239.794 393.087,241.095 392.400 C 242.136 391.850,243.200 390.969,243.460 390.442 C 243.719 389.915,244.419 389.065,245.016 388.552 C 248.914 385.203,248.685 367.862,244.710 365.325 C 242.354 363.822,242.142 358.080,244.320 354.800 C 246.459 351.579,246.690 345.487,244.800 342.138 C 244.140 340.969,243.600 339.714,243.600 339.350 C 243.600 338.985,242.779 337.889,241.776 336.914 C 238.403 333.636,237.992 332.452,238.684 328.000 C 239.008 325.910,239.354 323.621,239.453 322.913 C 239.551 322.205,239.894 321.363,240.216 321.041 C 240.537 320.720,240.800 320.185,240.800 319.852 C 240.800 319.519,240.949 319.155,241.132 319.042 C 241.314 318.930,241.694 317.794,241.975 316.519 C 242.257 315.243,242.737 313.403,243.043 312.429 C 243.350 311.455,243.600 310.362,243.600 310.001 C 243.600 309.640,244.111 308.771,244.736 308.072 C 245.361 307.372,246.118 306.034,246.419 305.099 C 247.377 302.118,248.499 299.815,249.253 299.283 C 249.655 298.998,250.613 297.513,251.381 295.984 C 252.149 294.454,253.592 292.387,254.588 291.391 C 255.668 290.311,256.400 289.214,256.400 288.676 C 256.400 288.080,256.843 287.512,257.700 287.009 C 259.375 286.025,259.656 285.711,260.499 283.888 C 260.884 283.056,261.514 282.255,261.898 282.107 C 262.928 281.712,264.400 280.130,264.400 279.418 C 264.400 279.078,264.580 278.800,264.800 278.800 C 265.020 278.800,265.200 278.560,265.200 278.268 C 265.200 277.975,265.669 277.484,266.243 277.177 C 266.817 276.870,267.785 275.894,268.395 275.009 C 269.004 274.124,270.313 272.590,271.302 271.600 C 272.292 270.610,273.554 268.994,274.107 268.008 C 274.660 267.022,275.440 266.032,275.839 265.808 C 276.929 265.196,277.345 264.721,277.946 263.400 C 278.964 261.164,279.078 261.000,279.897 260.584 C 281.321 259.861,281.897 259.214,282.123 258.086 C 282.359 256.907,283.641 255.200,284.291 255.200 C 284.510 255.200,285.119 254.390,285.644 253.400 C 286.169 252.410,286.714 251.600,286.856 251.600 C 286.997 251.600,287.218 251.184,287.345 250.675 C 287.473 250.166,288.286 249.027,289.152 248.144 C 290.080 247.197,290.938 245.811,291.241 244.769 C 291.529 243.781,292.258 242.572,292.892 242.030 C 293.517 241.497,294.267 240.507,294.558 239.830 C 295.759 237.041,296.000 236.324,296.000 235.548 C 296.000 235.100,296.617 234.134,297.372 233.401 C 298.652 232.158,299.930 229.183,300.591 225.907 C 300.712 225.306,301.314 224.226,301.928 223.507 C 303.029 222.219,303.514 220.940,304.398 217.000 C 305.283 213.060,305.702 211.784,306.463 210.714 C 307.563 209.166,308.259 206.429,308.779 201.600 C 309.353 196.275,310.023 191.916,310.345 191.400 C 313.334 186.617,313.368 155.814,310.390 151.400 C 310.101 150.972,309.532 148.053,308.791 143.200 C 308.198 139.312,307.686 137.840,306.100 135.466 C 305.385 134.396,304.800 133.130,304.800 132.654 C 304.800 130.905,303.213 127.469,301.813 126.186 C 301.036 125.474,300.400 124.547,300.400 124.126 C 300.400 123.195,299.516 121.207,299.100 121.203 C 298.935 121.201,298.800 120.963,298.800 120.674 C 298.800 120.384,298.215 119.594,297.500 118.919 C 295.783 117.297,295.203 116.543,295.187 115.917 C 295.168 115.130,294.328 114.194,293.034 113.518 C 292.393 113.183,291.492 112.235,291.031 111.412 C 290.570 110.589,289.489 109.522,288.629 109.040 C 287.769 108.559,286.870 107.820,286.632 107.399 C 285.936 106.167,285.448 105.743,283.695 104.849 C 282.786 104.384,281.590 103.554,281.039 103.002 C 280.487 102.451,279.848 102.000,279.618 102.000 C 279.388 102.000,279.200 101.861,279.200 101.691 C 279.200 101.317,277.167 100.299,275.051 99.614 C 274.198 99.338,272.957 98.592,272.291 97.956 C 271.626 97.320,270.836 96.800,270.535 96.800 C 270.235 96.800,269.677 96.645,269.295 96.456 C 268.913 96.267,267.620 95.797,266.421 95.412 C 265.223 95.027,263.603 94.225,262.821 93.630 C 261.267 92.448,259.091 91.604,257.572 91.593 C 255.752 91.581,249.743 90.186,248.770 89.550 C 247.704 88.855,246.981 88.697,240.800 87.810 C 235.794 87.092,208.658 86.689,199.600 87.198 M226.400 89.602 C 230.030 89.802,234.260 90.251,235.800 90.601 C 237.340 90.950,240.400 91.495,242.600 91.812 C 254.257 93.488,256.677 93.995,258.308 95.100 C 259.038 95.595,259.784 96.000,259.964 96.000 C 260.145 96.000,261.172 96.336,262.247 96.746 C 263.321 97.157,264.920 97.719,265.800 97.994 C 266.680 98.270,267.762 98.825,268.204 99.227 C 269.192 100.127,273.352 102.000,274.361 102.000 C 274.767 102.000,275.887 102.725,276.849 103.611 C 277.812 104.497,279.005 105.327,279.500 105.454 C 279.995 105.582,280.400 105.835,280.400 106.016 C 280.400 106.198,280.755 106.459,281.188 106.596 C 281.622 106.734,283.017 107.823,284.288 109.017 C 285.560 110.211,286.875 111.280,287.211 111.392 C 287.547 111.505,288.087 111.985,288.411 112.459 C 288.735 112.933,289.990 114.393,291.200 115.703 C 292.410 117.013,293.647 118.547,293.949 119.112 C 294.573 120.279,294.667 120.407,296.491 122.600 C 297.811 124.187,298.283 125.036,299.191 127.458 C 299.450 128.150,299.963 129.059,300.331 129.478 C 301.399 130.696,301.792 131.579,302.964 135.400 C 303.571 137.380,304.582 140.260,305.210 141.800 C 308.974 151.025,309.814 176.256,306.973 194.726 C 306.658 196.775,306.400 198.873,306.400 199.388 C 306.400 199.902,305.934 201.646,305.365 203.262 C 304.796 204.878,304.179 206.830,303.993 207.600 C 302.751 212.746,302.428 214.032,301.893 215.948 C 301.562 217.129,301.136 218.209,300.946 218.348 C 300.271 218.838,298.000 225.067,298.000 226.426 C 298.000 226.678,297.471 227.552,296.826 228.368 C 296.180 229.183,295.102 231.233,294.431 232.922 C 293.760 234.611,292.516 237.029,291.667 238.296 C 290.817 239.563,289.821 241.379,289.452 242.332 C 289.083 243.284,288.268 244.612,287.641 245.283 C 287.015 245.954,286.004 247.424,285.396 248.551 C 284.788 249.678,283.980 250.870,283.600 251.200 C 283.221 251.530,282.170 252.947,281.264 254.348 C 280.359 255.750,279.080 257.411,278.421 258.040 C 277.763 258.669,276.863 259.892,276.421 260.758 C 275.980 261.624,275.113 262.693,274.495 263.133 C 273.877 263.573,273.108 264.443,272.786 265.066 C 272.464 265.690,271.501 266.960,270.646 267.888 C 269.791 268.817,268.807 269.987,268.460 270.488 C 268.112 270.990,267.507 271.749,267.114 272.175 C 266.721 272.602,266.400 273.097,266.400 273.275 C 266.400 273.454,266.175 273.602,265.900 273.604 C 265.625 273.607,264.770 274.498,264.000 275.586 C 263.230 276.673,262.465 277.571,262.300 277.581 C 262.135 277.592,262.000 277.840,262.000 278.132 C 262.000 278.425,261.574 278.893,261.054 279.171 C 260.533 279.450,259.498 280.643,258.754 281.822 C 258.009 283.002,257.012 284.176,256.538 284.431 C 256.064 284.686,255.201 285.766,254.621 286.832 C 254.041 287.897,253.057 289.133,252.433 289.577 C 251.809 290.021,251.001 291.011,250.638 291.776 C 250.275 292.542,249.396 293.940,248.685 294.884 C 246.775 297.419,246.207 298.394,245.405 300.514 C 245.006 301.567,244.196 302.984,243.603 303.662 C 242.478 304.952,242.251 305.488,240.759 310.400 C 240.258 312.050,239.747 313.490,239.624 313.600 C 239.144 314.028,238.059 316.686,237.664 318.400 C 236.541 323.275,236.400 324.061,236.400 325.453 C 236.400 326.277,236.187 327.984,235.926 329.246 C 235.567 330.986,235.563 331.910,235.912 333.070 C 236.165 333.912,236.474 334.984,236.598 335.452 C 236.876 336.504,237.807 337.563,239.471 338.726 C 241.993 340.487,242.824 350.899,240.850 355.994 C 240.383 357.201,240.000 358.675,240.000 359.268 C 240.000 359.862,239.813 360.840,239.584 361.441 C 239.346 362.069,239.321 362.633,239.526 362.767 C 239.722 362.895,240.562 364.439,241.393 366.198 C 242.224 367.957,243.205 369.667,243.572 369.998 C 245.829 372.032,245.678 383.402,243.370 385.275 C 242.912 385.646,242.109 386.758,241.585 387.746 C 240.909 389.020,240.130 389.793,238.902 390.406 C 236.550 391.581,236.122 392.438,235.893 396.436 C 235.685 400.078,235.352 401.029,233.568 403.084 C 232.955 403.790,232.167 404.960,231.818 405.684 C 231.468 406.408,230.421 407.511,229.491 408.136 C 227.846 409.240,227.799 409.333,227.758 411.553 C 227.735 412.808,227.510 414.220,227.258 414.691 C 227.006 415.162,226.800 416.420,226.800 417.487 C 226.800 419.225,226.673 419.503,225.583 420.147 C 224.913 420.542,223.641 421.576,222.756 422.444 C 216.362 428.710,187.355 428.799,182.177 422.567 C 181.945 422.287,180.730 421.605,179.477 421.051 C 177.218 420.052,177.200 420.030,177.194 418.322 C 177.185 415.670,176.281 413.538,174.838 412.765 C 174.152 412.396,173.225 411.632,172.780 411.065 C 172.088 410.186,167.825 407.842,165.480 407.052 C 162.980 406.210,162.094 399.471,163.972 395.592 L 165.145 393.172 164.272 391.486 C 163.478 389.951,162.647 388.987,160.540 387.157 C 159.364 386.136,158.622 385.102,158.020 383.648 C 157.712 382.905,157.042 381.878,156.530 381.366 C 155.850 380.686,155.579 379.921,155.520 378.518 C 155.305 373.356,155.644 372.148,158.002 369.676 C 159.101 368.524,160.000 367.306,160.000 366.969 C 160.000 366.633,160.450 365.695,161.000 364.886 C 162.253 363.041,162.262 362.121,161.035 361.156 C 160.504 360.738,159.677 359.543,159.196 358.498 C 157.668 355.177,157.026 354.000,156.740 354.000 C 155.103 354.000,154.906 344.385,156.500 342.296 C 157.105 341.502,157.600 340.731,157.600 340.580 C 157.600 340.227,160.908 337.200,161.295 337.200 C 162.804 337.200,164.163 332.448,163.594 329.161 C 163.350 327.752,162.993 325.610,162.800 324.400 C 162.255 320.974,161.944 319.953,161.040 318.620 C 160.578 317.940,159.783 315.677,159.274 313.591 C 158.238 309.350,157.783 308.224,156.550 306.858 C 156.083 306.340,155.467 305.170,155.181 304.258 C 154.895 303.346,154.512 302.429,154.330 302.220 C 154.149 302.011,154.000 301.545,154.000 301.184 C 154.000 300.823,153.190 299.670,152.200 298.622 C 151.210 297.574,150.400 296.463,150.400 296.153 C 150.400 295.337,149.574 294.005,148.200 292.603 C 147.540 291.930,146.523 290.754,145.940 289.989 C 145.356 289.225,142.611 286.280,139.840 283.444 C 137.068 280.608,134.800 278.133,134.800 277.944 C 134.800 277.755,134.530 277.600,134.200 277.600 C 133.870 277.600,133.600 277.454,133.600 277.275 C 133.600 277.096,132.205 275.511,130.500 273.752 C 124.238 267.291,119.007 261.620,118.847 261.117 C 118.756 260.832,117.899 259.832,116.941 258.894 C 115.983 257.956,115.200 256.955,115.200 256.670 C 115.200 256.385,114.371 255.181,113.358 253.994 C 112.345 252.807,110.980 250.666,110.325 249.236 C 109.670 247.807,108.832 246.359,108.462 246.019 C 107.654 245.276,106.698 243.313,105.209 239.342 C 104.950 238.650,104.435 237.750,104.066 237.342 C 103.112 236.288,102.412 234.618,101.575 231.400 C 100.488 227.218,100.321 226.707,99.613 225.400 C 98.526 223.393,97.695 219.828,96.399 211.600 C 96.139 209.950,95.659 207.520,95.333 206.200 C 94.572 203.121,93.629 194.336,93.613 190.169 C 93.587 183.690,94.262 178.578,96.420 168.894 C 96.629 167.956,96.798 166.786,96.797 166.294 C 96.793 165.429,97.632 161.483,98.518 158.200 C 98.755 157.320,99.244 156.150,99.605 155.600 C 99.965 155.050,100.451 154.060,100.684 153.400 C 101.063 152.324,101.286 151.554,102.241 148.000 C 102.389 147.450,102.986 146.280,103.569 145.400 C 104.152 144.520,105.049 142.810,105.562 141.600 C 106.888 138.475,107.659 137.089,108.456 136.400 C 108.838 136.070,109.625 134.931,110.205 133.870 C 110.785 132.808,111.505 131.638,111.805 131.270 C 112.105 130.901,112.992 129.818,113.775 128.862 C 114.559 127.906,115.200 126.987,115.200 126.818 C 115.200 126.650,115.847 125.902,116.637 125.156 C 117.427 124.410,118.462 123.378,118.937 122.863 C 119.412 122.348,120.324 121.448,120.964 120.863 C 121.605 120.278,122.867 119.080,123.769 118.200 C 124.671 117.320,125.947 116.253,126.605 115.828 C 127.262 115.403,128.850 114.184,130.132 113.118 C 131.415 112.053,133.340 110.737,134.409 110.195 C 135.479 109.653,136.806 108.758,137.359 108.205 C 137.911 107.652,138.457 107.200,138.572 107.200 C 139.240 107.200,144.042 104.713,145.112 103.813 C 145.811 103.225,148.009 102.229,149.997 101.601 C 151.984 100.973,154.232 100.075,154.991 99.605 C 156.510 98.667,158.160 98.080,160.600 97.611 C 165.515 96.666,168.557 95.886,170.256 95.134 C 172.697 94.054,176.132 93.232,178.280 93.214 C 179.204 93.206,180.824 93.036,181.880 92.836 C 182.936 92.636,185.870 92.259,188.400 91.997 C 190.930 91.736,193.720 91.334,194.600 91.104 C 198.402 90.109,199.667 89.919,204.400 89.635 C 211.667 89.199,218.894 89.188,226.400 89.602 " stroke="none" fill="#807289" fill-rule="evenodd"></path><path id="path4" d="M194.456 18.032 C 193.206 19.374,193.156 20.098,192.921 40.200 C 192.593 68.338,192.872 70.061,197.826 70.573 C 202.286 71.033,203.070 68.894,202.639 57.440 C 202.505 53.898,202.298 44.070,202.178 35.600 C 202.048 26.403,201.792 19.767,201.542 19.126 C 200.777 17.158,195.963 16.415,194.456 18.032 M308.534 41.754 C 307.690 42.669,306.668 43.928,306.262 44.553 C 305.856 45.177,304.906 46.288,304.151 47.021 C 303.396 47.755,302.513 48.988,302.190 49.763 C 301.866 50.537,301.200 51.386,300.709 51.649 C 299.458 52.318,299.088 52.770,298.263 54.631 C 297.866 55.529,297.002 56.581,296.344 56.969 C 295.687 57.358,294.936 58.154,294.677 58.738 C 294.125 59.981,293.869 60.324,292.000 62.320 C 291.230 63.143,290.240 64.327,289.800 64.952 C 289.360 65.577,288.775 66.326,288.500 66.616 C 288.225 66.906,288.000 67.270,288.000 67.426 C 288.000 67.582,287.356 68.260,286.568 68.933 C 285.781 69.606,284.807 70.802,284.405 71.591 C 284.002 72.380,283.207 73.275,282.639 73.579 C 281.472 74.204,280.646 75.327,280.273 76.800 C 280.134 77.350,279.476 78.430,278.811 79.200 C 276.866 81.452,277.349 82.932,280.360 83.943 C 283.343 84.945,284.938 84.419,286.292 81.984 C 286.716 81.223,287.813 80.093,288.730 79.474 C 289.647 78.855,290.500 77.942,290.624 77.446 C 290.749 76.949,291.649 75.848,292.625 75.000 C 293.601 74.151,294.400 73.297,294.400 73.101 C 294.400 72.515,296.591 69.512,298.312 67.738 C 299.197 66.827,300.049 65.658,300.206 65.141 C 300.554 63.995,301.961 62.400,302.623 62.400 C 302.889 62.400,303.571 61.418,304.139 60.218 C 304.707 59.018,305.620 57.743,306.167 57.385 C 306.714 57.027,307.696 55.803,308.349 54.667 C 309.002 53.530,310.229 51.878,311.077 50.996 C 313.014 48.979,313.994 46.932,314.399 44.054 C 314.773 41.397,314.719 41.317,312.093 40.625 L 310.068 40.090 308.534 41.754 M310.800 45.951 C 310.800 47.062,309.826 47.755,309.246 47.056 C 308.628 46.310,309.104 45.200,310.043 45.200 C 310.517 45.200,310.800 45.481,310.800 45.951 M306.556 50.229 C 306.823 50.924,306.179 52.400,305.610 52.400 C 304.994 52.400,304.713 51.600,304.970 50.577 C 305.246 49.478,306.188 49.271,306.556 50.229 M301.711 56.900 C 301.484 59.677,301.289 60.249,300.749 59.709 C 300.294 59.254,301.071 54.800,301.605 54.800 C 301.758 54.800,301.805 55.745,301.711 56.900 M70.847 58.476 C 68.768 60.603,68.980 64.222,71.319 66.515 C 72.264 67.442,73.294 68.830,73.608 69.600 C 74.170 70.976,74.979 72.086,76.637 73.757 C 77.842 74.970,79.199 77.035,79.205 77.662 C 79.208 77.958,79.793 78.577,80.505 79.038 C 81.217 79.500,82.049 80.400,82.354 81.038 C 82.658 81.677,83.106 82.628,83.349 83.152 C 83.592 83.676,84.378 84.384,85.095 84.726 C 85.813 85.068,86.400 85.579,86.400 85.862 C 86.400 86.692,87.788 88.925,89.359 90.623 C 90.161 91.490,91.219 93.031,91.709 94.047 C 92.199 95.063,93.160 96.284,93.844 96.760 C 94.528 97.236,95.508 98.443,96.021 99.441 C 96.965 101.276,98.637 102.800,99.708 102.800 C 100.029 102.800,100.721 103.129,101.246 103.532 C 103.598 105.337,104.998 104.517,105.823 100.852 C 106.326 98.621,105.705 96.912,104.075 96.040 C 103.653 95.814,102.818 94.588,102.219 93.315 C 101.621 92.042,100.607 90.515,99.966 89.923 C 99.325 89.330,98.800 88.743,98.800 88.618 C 98.800 88.031,95.470 83.600,95.028 83.600 C 94.753 83.600,94.014 82.655,93.387 81.500 C 92.110 79.147,91.713 78.674,90.689 78.286 C 90.299 78.138,89.644 77.248,89.234 76.308 C 88.824 75.369,87.839 73.980,87.044 73.222 C 86.250 72.463,85.600 71.696,85.600 71.517 C 85.600 71.002,82.526 66.698,81.429 65.675 C 80.883 65.167,80.130 64.057,79.756 63.210 C 79.382 62.363,78.609 61.433,78.038 61.144 C 77.467 60.855,76.410 60.033,75.688 59.317 C 73.200 56.848,72.550 56.735,70.847 58.476 M297.339 64.427 C 295.945 65.798,294.846 64.421,296.019 62.774 L 296.925 61.500 297.502 62.600 C 298.022 63.593,298.006 63.771,297.339 64.427 M79.044 69.031 C 78.726 69.859,76.951 69.934,76.455 69.139 C 75.858 68.184,75.871 65.489,76.474 64.886 C 77.007 64.353,79.373 68.171,79.044 69.031 M293.727 67.644 C 293.852 68.122,293.576 68.849,293.024 69.490 L 292.115 70.547 291.366 69.404 C 290.824 68.577,290.753 68.216,291.108 68.097 C 291.379 68.007,291.600 67.693,291.600 67.400 C 291.600 66.184,293.400 66.391,293.727 67.644 M82.154 71.386 C 83.101 72.831,82.438 76.437,81.461 75.157 C 79.828 73.018,79.605 72.426,80.059 71.431 C 80.649 70.135,81.325 70.121,82.154 71.386 M289.722 72.044 C 290.152 72.731,288.228 75.788,287.607 75.404 C 287.052 75.061,286.800 72.747,287.231 71.943 C 287.725 71.020,289.115 71.076,289.722 72.044 M86.635 78.401 C 86.902 79.584,87.442 80.788,87.836 81.076 C 88.374 81.469,88.409 81.601,87.976 81.605 C 87.659 81.608,86.995 81.719,86.500 81.852 C 85.836 82.030,85.600 81.922,85.600 81.440 C 85.600 80.434,84.643 77.600,84.303 77.600 C 83.682 77.600,84.027 76.452,84.700 76.278 C 85.922 75.963,86.140 76.202,86.635 78.401 M285.728 76.662 C 285.872 76.805,285.438 77.451,284.763 78.096 C 283.393 79.405,283.410 79.406,283.064 77.959 C 282.730 76.564,284.680 75.614,285.728 76.662 M92.034 85.441 C 92.618 86.145,91.857 87.200,90.765 87.200 C 89.830 87.200,89.200 86.035,89.200 84.306 C 89.200 82.144,90.029 81.713,90.868 83.439 C 91.255 84.233,91.779 85.134,92.034 85.441 M95.712 89.159 C 96.520 90.526,96.255 92.688,95.254 92.893 C 94.610 93.024,92.800 90.477,92.800 89.439 C 92.800 87.791,94.791 87.599,95.712 89.159 M99.470 93.700 C 100.226 94.892,100.257 99.200,99.509 99.200 C 99.102 99.200,98.798 98.902,98.795 98.500 C 98.793 98.115,98.335 97.004,97.779 96.031 C 96.480 93.758,98.095 91.532,99.470 93.700 M377.000 119.198 C 375.900 119.363,374.370 119.864,373.600 120.311 C 372.241 121.102,370.847 121.442,365.000 122.412 C 361.441 123.002,359.707 123.567,358.200 124.627 C 356.997 125.474,355.193 125.938,349.600 126.839 C 346.728 127.302,342.400 128.934,342.400 129.553 C 342.400 129.716,341.455 130.087,340.300 130.379 C 337.471 131.093,334.800 132.371,334.800 133.011 C 334.800 133.298,334.576 133.608,334.302 133.699 C 333.943 133.819,334.068 134.377,334.755 135.712 C 336.064 138.257,338.522 139.008,342.354 138.031 C 343.149 137.829,345.060 137.457,346.600 137.205 C 351.255 136.444,353.312 135.879,355.200 134.845 C 357.038 133.838,357.805 133.627,363.400 132.595 C 367.503 131.837,370.307 130.931,371.535 129.965 C 372.070 129.544,372.902 129.200,373.383 129.200 C 374.173 129.200,375.303 128.896,379.569 127.535 C 383.348 126.329,384.220 121.019,380.926 119.265 C 379.977 118.760,379.941 118.759,377.000 119.198 M376.759 124.951 C 377.414 125.740,376.268 126.003,370.992 126.276 C 364.991 126.586,363.168 125.251,368.800 124.672 C 372.558 124.286,376.316 124.417,376.759 124.951 M361.800 129.222 L 363.000 129.725 361.400 130.098 C 358.253 130.832,352.123 130.931,351.170 130.264 C 350.310 129.662,350.315 129.653,351.650 129.431 C 358.241 128.339,359.624 128.310,361.800 129.222 M346.674 133.649 C 347.771 134.087,347.738 134.112,345.400 134.624 C 341.211 135.540,337.320 134.899,339.472 133.648 C 340.442 133.084,345.259 133.085,346.674 133.649 M13.676 153.302 C 6.298 155.106,11.117 163.187,19.576 163.198 C 20.553 163.199,22.353 163.372,23.576 163.582 C 24.799 163.792,27.240 164.167,29.000 164.417 C 30.760 164.666,33.550 165.289,35.200 165.800 C 38.205 166.732,41.627 167.220,50.600 167.995 C 59.641 168.777,63.401 169.252,65.136 169.833 C 72.854 172.420,78.111 171.374,79.383 167.000 C 80.583 162.873,78.682 161.921,66.200 160.398 C 64.660 160.210,62.590 159.861,61.600 159.622 C 58.276 158.818,55.440 158.429,48.200 157.783 C 40.683 157.111,33.744 156.082,30.000 155.083 C 27.210 154.338,23.384 153.707,19.800 153.401 C 18.260 153.269,16.640 153.098,16.200 153.021 C 15.760 152.944,14.624 153.071,13.676 153.302 M16.751 155.961 C 17.054 156.153,17.179 156.511,17.028 156.755 C 16.638 157.385,15.327 157.307,15.070 156.639 C 14.693 155.655,15.655 155.267,16.751 155.961 M35.600 159.218 C 45.585 160.222,46.907 160.465,46.208 161.161 C 45.433 161.933,28.441 162.051,26.000 161.302 C 25.230 161.065,24.105 160.762,23.500 160.628 C 18.467 159.514,27.767 158.430,35.600 159.218 M70.600 163.937 C 75.003 164.378,75.606 164.682,74.012 165.651 C 72.027 166.859,62.088 166.617,52.080 165.117 C 42.920 163.745,58.668 162.741,70.600 163.937 M330.415 223.584 C 328.387 225.755,328.826 227.732,331.668 229.228 C 332.181 229.498,333.045 230.249,333.589 230.897 C 334.669 232.183,336.533 233.247,339.432 234.231 C 340.461 234.581,341.708 235.272,342.204 235.768 C 343.083 236.647,345.643 237.777,349.129 238.827 C 350.080 239.113,351.160 239.728,351.529 240.193 C 352.178 241.012,353.869 241.819,357.575 243.079 C 358.551 243.411,359.671 244.091,360.064 244.590 C 360.754 245.468,363.804 246.871,366.134 247.383 C 366.758 247.520,367.746 248.110,368.330 248.694 C 369.278 249.642,375.038 252.400,376.070 252.400 C 376.294 252.400,376.965 252.748,377.563 253.173 C 380.454 255.232,382.477 254.200,383.099 250.349 C 383.525 247.707,382.842 246.363,380.598 245.425 C 379.874 245.122,378.602 244.235,377.773 243.452 C 376.313 242.075,372.518 240.000,371.459 240.000 C 371.173 240.000,370.503 239.527,369.970 238.949 C 369.056 237.959,364.472 235.600,363.461 235.600 C 363.206 235.600,362.512 235.085,361.918 234.457 C 361.325 233.828,360.335 233.122,359.720 232.889 C 359.104 232.656,357.726 232.149,356.659 231.762 C 355.591 231.376,353.936 230.414,352.982 229.625 C 352.021 228.831,350.209 227.879,348.923 227.491 C 347.645 227.107,346.025 226.316,345.323 225.734 C 343.444 224.178,339.126 222.825,335.115 222.535 L 331.630 222.284 330.415 223.584 M337.800 225.600 C 337.936 225.820,338.377 226.000,338.781 226.000 C 339.184 226.000,339.618 226.269,339.744 226.598 C 340.081 227.475,342.436 228.797,343.667 228.799 C 345.314 228.801,348.333 230.258,349.456 231.594 C 350.139 232.405,351.208 233.008,352.735 233.443 C 353.981 233.798,355.171 234.249,355.380 234.444 C 355.589 234.640,356.064 234.800,356.437 234.800 C 356.809 234.800,357.216 235.205,357.341 235.700 C 357.587 236.671,358.568 237.194,362.000 238.180 C 364.685 238.951,365.067 239.186,365.255 240.176 C 365.407 240.977,369.340 242.787,370.985 242.813 C 372.827 242.841,373.821 244.637,372.646 245.811 C 372.238 246.219,371.790 246.267,370.946 245.993 C 370.316 245.788,368.737 245.313,367.437 244.936 C 365.510 244.377,364.996 244.043,364.649 243.125 C 364.401 242.468,363.926 242.000,363.507 242.000 C 363.112 242.000,362.477 241.841,362.095 241.647 C 361.713 241.453,360.324 240.940,359.008 240.507 C 357.158 239.897,356.567 239.507,356.396 238.781 C 356.207 237.981,355.589 237.677,352.187 236.711 C 349.372 235.911,347.965 235.296,347.400 234.618 C 346.673 233.744,343.737 232.420,342.496 232.406 C 341.207 232.391,338.461 230.696,338.229 229.773 C 338.095 229.238,337.711 228.800,337.377 228.800 C 337.042 228.800,335.881 228.203,334.797 227.473 L 332.826 226.145 333.913 225.715 C 335.328 225.155,337.486 225.091,337.800 225.600 M377.750 247.393 L 379.700 248.382 378.550 248.803 C 377.917 249.034,377.179 249.301,376.910 249.396 C 376.178 249.652,373.600 248.467,373.600 247.875 C 373.600 246.235,375.119 246.058,377.750 247.393 M81.022 252.365 C 80.906 252.551,79.864 253.002,78.706 253.366 C 75.500 254.373,73.500 255.298,72.437 256.264 C 71.907 256.746,70.647 257.434,69.637 257.793 C 68.626 258.153,67.530 258.618,67.200 258.826 C 66.870 259.035,66.330 259.325,66.000 259.472 C 65.670 259.618,64.969 260.247,64.442 260.869 C 63.915 261.491,63.245 262.000,62.954 262.000 C 61.862 262.000,58.039 264.031,56.941 265.194 C 56.314 265.858,54.947 266.686,53.902 267.032 C 52.858 267.379,51.348 268.300,50.547 269.078 C 49.746 269.856,48.145 270.910,46.991 271.421 C 44.159 272.673,39.200 277.485,39.200 278.980 C 39.200 280.497,40.916 283.200,41.879 283.200 C 44.110 283.200,49.086 281.321,50.400 279.982 C 50.950 279.422,52.795 278.268,54.500 277.417 C 56.205 276.566,57.600 275.726,57.600 275.551 C 57.600 274.887,59.320 273.667,60.589 273.428 C 61.315 273.292,62.695 272.500,63.655 271.668 C 65.215 270.316,69.458 268.000,70.375 268.000 C 70.570 268.000,71.150 267.505,71.664 266.900 C 72.179 266.295,73.320 265.549,74.200 265.243 C 77.251 264.180,79.973 262.716,80.193 262.021 C 80.422 261.300,81.992 260.400,83.019 260.400 C 83.338 260.400,83.600 260.220,83.600 260.000 C 83.600 259.780,83.840 259.600,84.132 259.600 C 84.425 259.600,84.906 259.150,85.200 258.600 C 85.494 258.050,85.885 257.600,86.068 257.600 C 87.142 257.600,85.933 253.494,84.681 252.890 C 83.410 252.277,81.266 251.969,81.022 252.365 M82.238 256.581 C 83.091 257.434,81.810 258.000,79.026 258.000 C 76.172 258.000,75.976 257.113,78.700 256.522 C 81.416 255.933,81.593 255.936,82.238 256.581 M75.508 260.890 C 76.385 261.618,73.561 262.733,70.747 262.770 C 68.816 262.796,68.463 262.685,68.284 262.000 C 68.137 261.439,68.273 261.198,68.737 261.194 C 69.102 261.191,70.120 260.922,71.000 260.596 C 72.697 259.969,74.543 260.089,75.508 260.890 M68.000 265.447 C 68.000 265.765,67.461 266.128,66.792 266.262 C 66.127 266.395,65.486 266.660,65.368 266.852 C 65.003 267.443,62.135 267.244,61.592 266.590 C 61.314 266.255,61.157 265.940,61.243 265.890 C 63.213 264.757,63.775 264.614,65.775 264.737 C 67.376 264.836,68.000 265.035,68.000 265.447 M60.312 269.959 C 60.249 270.279,59.224 270.802,58.000 271.137 C 56.790 271.468,55.683 271.914,55.540 272.128 C 55.112 272.769,54.000 272.088,54.000 271.184 C 54.000 269.908,54.971 269.200,56.722 269.200 C 57.678 269.200,58.510 268.949,58.830 268.564 C 59.440 267.829,60.526 268.852,60.312 269.959 M52.178 273.047 C 54.638 273.991,52.736 276.000,49.381 276.000 C 48.000 276.000,46.464 274.999,47.291 274.638 C 47.351 274.611,48.120 274.191,49.000 273.704 C 50.714 272.755,51.171 272.661,52.178 273.047 M299.383 274.745 C 297.786 275.719,296.879 278.262,297.552 279.879 C 298.073 281.131,304.051 287.600,304.687 287.600 C 304.911 287.600,305.552 288.292,306.111 289.137 C 306.671 289.983,307.774 290.981,308.564 291.356 C 309.353 291.730,310.265 292.552,310.591 293.182 C 310.963 293.903,311.928 294.664,313.191 295.235 C 314.296 295.734,315.200 296.323,315.200 296.543 C 315.200 297.118,317.998 299.600,318.645 299.600 C 318.945 299.600,319.867 300.327,320.695 301.217 C 321.523 302.106,323.286 303.356,324.612 303.995 C 325.939 304.634,327.792 305.887,328.729 306.779 C 331.218 309.147,334.793 308.997,337.082 306.428 C 338.008 305.390,338.024 305.460,336.400 303.502 C 336.070 303.104,335.424 302.108,334.965 301.289 C 334.389 300.263,333.319 299.343,331.522 298.328 C 330.089 297.518,328.215 296.159,327.358 295.308 C 326.501 294.458,325.075 293.446,324.188 293.060 C 323.202 292.630,322.385 291.926,322.084 291.244 C 321.812 290.631,321.098 289.900,320.495 289.618 C 318.027 288.464,317.393 288.021,317.257 287.356 C 317.087 286.524,316.552 285.984,315.200 285.278 C 313.742 284.516,313.071 283.929,312.326 282.762 C 311.961 282.191,310.756 281.142,309.648 280.431 C 308.541 279.720,307.535 278.838,307.413 278.469 C 307.196 277.813,303.552 275.200,302.854 275.200 C 302.658 275.200,302.274 274.930,302.000 274.600 C 301.351 273.818,300.859 273.845,299.383 274.745 M46.800 278.013 C 46.800 279.442,46.298 279.696,44.400 279.227 C 43.467 278.997,43.294 278.868,43.881 278.841 C 44.366 278.818,45.086 278.356,45.481 277.813 C 46.439 276.496,46.800 276.551,46.800 278.013 M302.000 278.400 C 302.000 278.620,302.315 278.804,302.700 278.809 C 303.266 278.816,303.209 278.966,302.400 279.590 C 301.270 280.462,300.067 279.845,300.533 278.631 C 300.797 277.942,302.000 277.753,302.000 278.400 M308.357 283.459 C 308.443 283.526,308.286 283.855,308.008 284.190 C 306.917 285.504,303.752 284.374,304.289 282.862 C 304.953 280.992,305.224 281.031,308.357 283.459 M311.246 286.394 C 311.991 287.050,312.825 287.590,313.100 287.594 C 313.732 287.602,313.741 288.099,313.120 288.720 C 311.705 290.135,308.219 288.695,308.654 286.876 C 309.151 284.792,309.380 284.749,311.246 286.394 M314.882 289.953 C 315.172 290.367,316.217 290.978,317.204 291.312 C 318.836 291.864,319.028 292.067,319.323 293.559 C 319.633 295.128,319.712 295.200,321.135 295.200 C 323.663 295.200,325.343 297.119,323.879 298.335 C 323.496 298.652,323.044 298.577,322.179 298.051 C 321.530 297.658,320.505 297.211,319.900 297.060 C 319.117 296.864,318.796 296.527,318.787 295.892 C 318.770 294.654,317.948 293.695,316.675 293.427 C 316.084 293.302,315.150 293.107,314.600 292.992 C 313.713 292.808,313.600 292.582,313.600 290.992 C 313.600 289.080,314.027 288.733,314.882 289.953 M329.200 300.389 C 330.190 301.152,330.192 301.166,329.400 301.767 C 328.218 302.665,327.476 302.515,325.243 300.931 C 325.157 300.869,325.314 300.545,325.592 300.210 C 326.285 299.374,327.994 299.459,329.200 300.389 " stroke="none" fill="#343d71" fill-rule="evenodd"></path></g></svg>